%FSLAX24Y24*%
%MOIN*%
G70*
G01*
G75*
G04 Layer_Color=16711935*
%ADD10C,0.0060*%
%ADD11C,0.0100*%
%ADD12R,0.0374X0.0394*%
%ADD13R,0.0394X0.0374*%
%ADD14R,0.0870X0.0240*%
%ADD15R,0.2677X0.2717*%
%ADD16R,0.0374X0.0748*%
%ADD17R,0.0374X0.0945*%
%ADD18R,0.1299X0.0945*%
%ADD19R,0.0430X0.0390*%
%ADD20R,0.0492X0.0669*%
%ADD21R,0.0709X0.1417*%
%ADD22R,0.0620X0.0500*%
%ADD23R,0.0390X0.0430*%
%ADD24R,0.0354X0.0433*%
%ADD25R,0.1299X0.0945*%
%ADD26R,0.0433X0.0354*%
%ADD27R,0.0787X0.0787*%
%ADD28R,0.0787X0.0787*%
%ADD29O,0.0079X0.0295*%
%ADD30O,0.0295X0.0079*%
%ADD31R,0.0669X0.0492*%
%ADD32C,0.0080*%
%ADD33C,0.0200*%
%ADD34C,0.0300*%
%ADD35C,0.0050*%
%ADD36C,0.0039*%
%ADD37C,0.0600*%
%ADD38O,0.1000X0.0700*%
%ADD39R,0.4000X0.4300*%
%ADD40O,0.0700X0.1000*%
%ADD41R,0.0700X0.1000*%
%ADD42O,0.0700X0.1000*%
%ADD43R,0.0700X0.1000*%
%ADD44R,0.0700X0.1300*%
%ADD45O,0.0700X0.1300*%
%ADD46C,0.0800*%
%ADD47O,0.1300X0.0700*%
%ADD48R,0.1300X0.0700*%
%ADD49R,0.0394X0.0394*%
%ADD50C,0.0394*%
%ADD51C,0.0500*%
%ADD52C,0.0260*%
%ADD53C,0.0098*%
%ADD54C,0.0079*%
%ADD55C,0.0070*%
%ADD56R,0.0669X0.0669*%
%ADD57R,0.0669X0.0669*%
%ADD58R,0.0454X0.0474*%
%ADD59R,0.0474X0.0454*%
%ADD60R,0.0950X0.0320*%
%ADD61R,0.2757X0.2797*%
%ADD62R,0.0454X0.0828*%
%ADD63R,0.0454X0.1025*%
%ADD64R,0.1379X0.1025*%
%ADD65R,0.0510X0.0470*%
%ADD66R,0.0572X0.0749*%
%ADD67R,0.0789X0.1497*%
%ADD68R,0.0700X0.0580*%
%ADD69R,0.0470X0.0510*%
%ADD70R,0.0434X0.0513*%
%ADD71R,0.1379X0.1025*%
%ADD72R,0.0513X0.0434*%
%ADD73O,0.0159X0.0375*%
%ADD74O,0.0375X0.0159*%
%ADD75R,0.0749X0.0572*%
%ADD76C,0.1650*%
%ADD77O,0.1080X0.0780*%
%ADD78R,0.4080X0.4380*%
%ADD79O,0.0780X0.1080*%
%ADD80R,0.0780X0.1080*%
%ADD81O,0.0780X0.1080*%
%ADD82R,0.0780X0.1080*%
%ADD83R,0.0780X0.1380*%
%ADD84O,0.0780X0.1380*%
%ADD85C,0.0880*%
%ADD86O,0.1380X0.0780*%
%ADD87R,0.1380X0.0780*%
%ADD88R,0.0474X0.0474*%
%ADD89C,0.0474*%
%ADD90C,0.0580*%
%ADD91C,0.0340*%
D11*
X-6770Y29920D02*
G03*
X-6770Y29920I-630J0D01*
G01*
X-1600Y2590D02*
Y3090D01*
Y1590D02*
X-1100D01*
X-1600D02*
Y2090D01*
Y5590D02*
Y6090D01*
Y4590D02*
Y5090D01*
Y8090D02*
Y8590D01*
Y7090D02*
Y7590D01*
Y11090D02*
Y11590D01*
Y10090D02*
Y10590D01*
X1400Y2590D02*
Y3090D01*
Y1590D02*
Y2090D01*
X400Y1590D02*
X900D01*
X1400Y5590D02*
Y6090D01*
Y4590D02*
Y5090D01*
Y8590D02*
Y9090D01*
Y7590D02*
Y8090D01*
X900Y11590D02*
X1400D01*
X-100D02*
X400D01*
X1400Y10590D02*
Y11090D01*
X-1600Y3590D02*
Y4090D01*
Y9090D02*
Y9590D01*
X1400Y3590D02*
Y4090D01*
Y6590D02*
Y7090D01*
Y9590D02*
Y10090D01*
X-600Y1590D02*
X-100D01*
X-1100Y11590D02*
X-600D01*
D35*
X-3400Y36110D02*
Y36310D01*
X-3640Y36110D02*
X-3400D01*
X-4200D02*
Y36310D01*
Y36110D02*
X-3960D01*
X-3400Y37270D02*
Y37470D01*
X-3640D02*
X-3400D01*
X-4200Y37270D02*
Y37470D01*
X-3960D01*
X-10880Y9190D02*
X-10680D01*
X-10880D02*
Y9430D01*
Y9990D02*
X-10680D01*
X-10880Y9750D02*
Y9990D01*
X-9720Y9190D02*
X-9520D01*
Y9430D01*
X-9720Y9990D02*
X-9520D01*
Y9750D02*
Y9990D01*
X-16880Y11190D02*
X-16680D01*
X-16880D02*
Y11430D01*
Y11990D02*
X-16680D01*
X-16880Y11750D02*
Y11990D01*
X-15720Y11190D02*
X-15520D01*
Y11430D01*
X-15720Y11990D02*
X-15520D01*
Y11750D02*
Y11990D01*
X-7080Y26190D02*
X-6880D01*
X-7080D02*
Y26430D01*
Y26990D02*
X-6880D01*
X-7080Y26750D02*
Y26990D01*
X-5920Y26190D02*
X-5720D01*
Y26430D01*
X-5920Y26990D02*
X-5720D01*
Y26750D02*
Y26990D01*
X-6000Y23910D02*
Y24110D01*
X-6240Y23910D02*
X-6000D01*
X-6800D02*
Y24110D01*
Y23910D02*
X-6560D01*
X-6000Y25070D02*
Y25270D01*
X-6240D02*
X-6000D01*
X-6800Y25070D02*
Y25270D01*
X-6560D01*
X-6400Y12310D02*
Y12510D01*
X-6640Y12310D02*
X-6400D01*
X-7200D02*
Y12510D01*
Y12310D02*
X-6960D01*
X-6400Y13470D02*
Y13670D01*
X-6640D02*
X-6400D01*
X-7200Y13470D02*
Y13670D01*
X-6960D01*
X-4000Y22510D02*
Y22710D01*
X-4240Y22510D02*
X-4000D01*
X-4800D02*
Y22710D01*
Y22510D02*
X-4560D01*
X-4000Y23670D02*
Y23870D01*
X-4240D02*
X-4000D01*
X-4800Y23670D02*
Y23870D01*
X-4560D01*
X-4800Y25270D02*
Y25470D01*
X-4560D01*
X-4000Y25270D02*
Y25470D01*
X-4240D02*
X-4000D01*
X-4800Y24110D02*
Y24310D01*
Y24110D02*
X-4560D01*
X-4000D02*
Y24310D01*
X-4240Y24110D02*
X-4000D01*
X-10200Y15050D02*
Y15250D01*
X-10440Y15050D02*
X-10200D01*
X-11000D02*
Y15250D01*
Y15050D02*
X-10760D01*
X-10200Y16210D02*
Y16410D01*
X-10440D02*
X-10200D01*
X-11000Y16210D02*
Y16410D01*
X-10760D01*
X-5000Y24110D02*
Y24310D01*
X-5240Y24110D02*
X-5000D01*
X-5800D02*
Y24310D01*
Y24110D02*
X-5560D01*
X-5000Y25270D02*
Y25470D01*
X-5240D02*
X-5000D01*
X-5800Y25270D02*
Y25470D01*
X-5560D01*
X-6720Y18190D02*
X-6520D01*
Y17950D02*
Y18190D01*
X-6720Y17390D02*
X-6520D01*
Y17630D01*
X-7880Y18190D02*
X-7680D01*
X-7880Y17950D02*
Y18190D01*
Y17390D02*
X-7680D01*
X-7880D02*
Y17630D01*
X-9600Y17110D02*
Y17310D01*
X-9840Y17110D02*
X-9600D01*
X-10400D02*
Y17310D01*
Y17110D02*
X-10160D01*
X-9600Y18270D02*
Y18470D01*
X-9840D02*
X-9600D01*
X-10400Y18270D02*
Y18470D01*
X-10160D01*
X-10280Y23790D02*
X-10080D01*
X-10280D02*
Y24030D01*
Y24590D02*
X-10080D01*
X-10280Y24350D02*
Y24590D01*
X-9120Y23790D02*
X-8920D01*
Y24030D01*
X-9120Y24590D02*
X-8920D01*
Y24350D02*
Y24590D01*
X-17400Y30910D02*
Y31110D01*
X-17640Y30910D02*
X-17400D01*
X-18200D02*
Y31110D01*
Y30910D02*
X-17960D01*
X-17400Y32070D02*
Y32270D01*
X-17640D02*
X-17400D01*
X-18200Y32070D02*
Y32270D01*
X-17960D01*
X-22600Y24870D02*
Y25070D01*
X-22360D01*
X-21800Y24870D02*
Y25070D01*
X-22040D02*
X-21800D01*
X-22600Y23710D02*
Y23910D01*
Y23710D02*
X-22360D01*
X-21800D02*
Y23910D01*
X-22040Y23710D02*
X-21800D01*
X-16800Y37270D02*
X-16560D01*
X-16800Y37070D02*
Y37270D01*
X-16240D02*
X-16000D01*
Y37070D02*
Y37270D01*
X-16800Y35910D02*
X-16560D01*
X-16800D02*
Y36110D01*
X-16240Y35910D02*
X-16000D01*
Y36110D01*
D36*
X-4679Y20190D02*
X-4521D01*
X-4600Y20111D02*
Y20269D01*
D76*
X520Y-2580D02*
D03*
X-21860Y-2610D02*
D03*
X-21890Y39960D02*
D03*
X570Y39860D02*
D03*
D77*
X-11000Y11990D02*
D03*
X-9000Y12990D02*
D03*
X-10000D02*
D03*
X-11000Y13990D02*
D03*
X-20000Y11990D02*
D03*
X-18000Y12990D02*
D03*
X-19000D02*
D03*
X-20000Y13990D02*
D03*
D78*
X-16720Y2390D02*
D03*
X-5800Y5560D02*
D03*
X-11600Y2460D02*
D03*
D79*
X-16720Y8390D02*
D03*
X-17720D02*
D03*
X-5800Y11560D02*
D03*
X-6800D02*
D03*
X-11600Y8460D02*
D03*
X-12600D02*
D03*
D80*
X-15720Y8390D02*
D03*
X-4800Y11560D02*
D03*
X-10600Y8460D02*
D03*
D81*
X400Y6590D02*
D03*
X-6000Y32990D02*
D03*
X-7000Y34990D02*
D03*
Y33990D02*
D03*
X-8000Y32990D02*
D03*
D82*
X-600Y6590D02*
D03*
D83*
X-6400Y39390D02*
D03*
X-20400Y1990D02*
D03*
X-2000Y36390D02*
D03*
X-7200Y1060D02*
D03*
D84*
X-7400Y39390D02*
D03*
X-9400D02*
D03*
X-10400D02*
D03*
X-12400D02*
D03*
X-13400D02*
D03*
X-15400D02*
D03*
X-16400D02*
D03*
X-8400D02*
D03*
X-11400D02*
D03*
X-14400D02*
D03*
X-17400D02*
D03*
X-21400Y1990D02*
D03*
X-1000Y36390D02*
D03*
X-6200Y1060D02*
D03*
X-5200D02*
D03*
X-4200D02*
D03*
D85*
X-17820Y38150D02*
D03*
X-21820Y750D02*
D03*
X-580Y37630D02*
D03*
X-3780Y2300D02*
D03*
X-2440Y25410D02*
D03*
X-1840Y20410D02*
D03*
X200Y14390D02*
D03*
X-1840Y32610D02*
D03*
X-21640Y30810D02*
D03*
D86*
X-1200Y23990D02*
D03*
Y24990D02*
D03*
X-600Y19990D02*
D03*
X-1040Y14810D02*
D03*
X-600Y29190D02*
D03*
Y32190D02*
D03*
Y31190D02*
D03*
Y30190D02*
D03*
X-20400Y27390D02*
D03*
Y30390D02*
D03*
Y29390D02*
D03*
Y28390D02*
D03*
D87*
X-1200Y22990D02*
D03*
X-600Y18990D02*
D03*
X-1040Y15810D02*
D03*
X-600Y28190D02*
D03*
X-20400Y26390D02*
D03*
D88*
X-7400Y30190D02*
D03*
D89*
Y29599D02*
D03*
D90*
X1080Y36930D02*
D03*
X-2760Y32340D02*
D03*
X-3590D02*
D03*
X-4390Y32400D02*
D03*
X-5960Y28700D02*
D03*
X-7430Y26600D02*
D03*
X-6420Y23470D02*
D03*
X-5850Y14680D02*
D03*
X-4600Y17300D02*
D03*
X-7250Y25010D02*
D03*
X-11745Y27315D02*
D03*
X-6380Y20620D02*
D03*
X-10820Y20790D02*
D03*
X-10550Y22120D02*
D03*
X-10690Y17580D02*
D03*
X-10630Y20130D02*
D03*
X-8835Y27745D02*
D03*
X-15820Y18370D02*
D03*
X-14340Y23390D02*
D03*
X-14380Y20950D02*
D03*
X-9990Y29040D02*
D03*
X-15780Y30630D02*
D03*
X-15800Y31940D02*
D03*
X-16429Y35511D02*
D03*
X-17350Y33400D02*
D03*
X-10390Y35490D02*
D03*
X-9380Y35110D02*
D03*
X-11390Y34660D02*
D03*
X-14710Y35330D02*
D03*
X-14090Y34910D02*
D03*
X-13460Y34580D02*
D03*
X-14350Y33990D02*
D03*
X-11200Y34000D02*
D03*
X-14320Y33280D02*
D03*
X-11170Y33320D02*
D03*
X-11930Y32570D02*
D03*
X-10010Y30580D02*
D03*
X-8230Y28450D02*
D03*
X-11700Y26180D02*
D03*
X-14000D02*
D03*
X-15270Y27450D02*
D03*
X-8470Y30230D02*
D03*
X-8480Y29260D02*
D03*
X-18020Y30420D02*
D03*
X-21230Y18310D02*
D03*
X-17610Y16690D02*
D03*
X-7860Y11270D02*
D03*
X-6070Y25810D02*
D03*
X-10690Y26160D02*
D03*
X-6070Y22100D02*
D03*
X-5990Y20020D02*
D03*
D91*
X-12413Y29390D02*
D03*
X-13200Y30177D02*
D03*
X-12413Y30965D02*
D03*
X-13200Y29390D02*
D03*
Y30965D02*
D03*
X-11625D02*
D03*
Y29390D02*
D03*
Y30177D02*
D03*
X-12413D02*
D03*
M02*
