M48
;Layer_Color=9474304
;FILE_FORMAT=2:4
INCH
;TYPE=PLATED
T1F00S00C0.0130
T2F00S00C0.0197
T3F00S00C0.0280
T4F00S00C0.0420
T5F00S00C0.1560
%
T01
X040000Y038200
X040787
X041575
Y038987
Y039775
X040787
X040000
Y038987
X040787
T02
X045800Y038409
Y039000
T03
X047350Y023490
X048600Y026110
X047210Y028830
X047130Y030910
X046820Y029430
X042380Y029600
X042570Y028940
X042650Y030930
X042510Y026390
X037380Y027180
X035590Y025500
X031970Y027120
X038820Y029760
X045340Y020080
X046780Y032280
X045950Y033820
X045770Y035410
X044365Y036555
X044970Y037260
X044720Y038070
X044730Y039040
X043190Y039390
X043210Y037850
X041455Y036125
X041500Y034990
X042510Y034970
X039200Y034990
X037930Y036260
X037420Y039440
X037400Y040750
X038880Y042090
X038850Y042800
X039110Y043720
X039740Y043390
X038490Y044140
X036771Y044321
X035850Y042210
X035180Y039230
X041270Y041380
X042030Y042130
X042000Y042810
X041810Y043470
X042810Y044300
X043820Y043920
X038860Y032200
X047130Y034620
X047240Y037510
X048810Y041210
X049610Y041150
X050440
X054280Y045740
T04
X031800Y010800
X032800
X046000Y009870
X047000
X048000
X049000
X052600Y015400
X053600
X052160Y023620
Y024620
X052600Y027800
Y028800
X048400Y020370
X047400
X046400
X044200Y021800
X043200
X042200Y020800
Y022800
X042600Y017270
X041600
X040600
X037480Y017200
X036480
X035480
X035200Y021800
X034200
X033200Y020800
Y022800
X032800Y035200
Y036200
Y037200
Y038200
Y039200
X045200Y041800
X046200Y042800
Y043800
X047200Y041800
X052600Y041000
Y040000
Y039000
Y038000
Y037000
X052000Y033800
Y032800
Y031800
X052200Y045200
X051200
X046800Y048200
X045800
X044800
X043800
X042800
X041800
X040800
X039800
X038800
X037800
X036800
X035800
T05
X036480Y010200
X041600Y010270
X047400Y013370
M30
