%FSLAX24Y24*%
%MOIN*%
G70*
G01*
G75*
G04 Layer_Color=65535*
%ADD10C,0.0060*%
%ADD11C,0.0100*%
%ADD12R,0.0374X0.0394*%
%ADD13R,0.0394X0.0374*%
%ADD14R,0.0870X0.0240*%
%ADD15R,0.2677X0.2717*%
%ADD16R,0.0374X0.0748*%
%ADD17R,0.0374X0.0945*%
%ADD18R,0.1299X0.0945*%
%ADD19R,0.0430X0.0390*%
%ADD20R,0.0492X0.0669*%
%ADD21R,0.0709X0.1417*%
%ADD22R,0.0620X0.0500*%
%ADD23R,0.0390X0.0430*%
%ADD24R,0.0354X0.0433*%
%ADD25R,0.1299X0.0945*%
%ADD26R,0.0433X0.0354*%
%ADD27R,0.0787X0.0787*%
%ADD28R,0.0787X0.0787*%
%ADD29O,0.0079X0.0295*%
%ADD30O,0.0295X0.0079*%
%ADD31R,0.0669X0.0492*%
%ADD32C,0.0080*%
%ADD33C,0.0200*%
%ADD34C,0.0300*%
%ADD35C,0.0050*%
%ADD36C,0.0039*%
%ADD37C,0.0600*%
%ADD38O,0.1000X0.0700*%
%ADD39R,0.4000X0.4300*%
%ADD40O,0.0700X0.1000*%
%ADD41R,0.0700X0.1000*%
%ADD42O,0.0700X0.1000*%
%ADD43R,0.0700X0.1000*%
%ADD44R,0.0700X0.1300*%
%ADD45O,0.0700X0.1300*%
%ADD46C,0.0800*%
%ADD47O,0.1300X0.0700*%
%ADD48R,0.1300X0.0700*%
%ADD49R,0.0394X0.0394*%
%ADD50C,0.0394*%
%ADD51C,0.0500*%
%ADD52C,0.0260*%
%ADD53C,0.0098*%
%ADD54C,0.0079*%
%ADD55C,0.0070*%
G36*
X-9850Y22270D02*
X-10150D01*
Y22570D01*
X-9850D01*
Y22270D01*
D02*
G37*
D11*
X-19150Y34870D02*
G03*
X-19150Y34870I-1295J0D01*
G01*
X1400Y6590D02*
G03*
X1400Y6590I-1500J0D01*
G01*
X-11750Y11240D02*
Y11490D01*
Y14740D02*
X-8250D01*
X-11750Y11240D02*
X-8250D01*
X-11750Y11490D02*
Y14740D01*
X-8250Y11240D02*
Y14740D01*
X-20750Y11240D02*
Y11490D01*
Y14740D02*
X-17250D01*
X-20750Y11240D02*
X-17250D01*
X-20750Y11490D02*
Y14740D01*
X-17250Y11240D02*
Y14740D01*
X-18970Y90D02*
X-14470D01*
X-18970Y6340D02*
X-14470D01*
X-16720D02*
Y7640D01*
X-18970Y1840D02*
Y6340D01*
X-14470Y1840D02*
Y6340D01*
X-18970Y840D02*
Y1840D01*
X-17720Y6340D02*
Y7640D01*
X-14470Y840D02*
Y1840D01*
X-15720Y6340D02*
Y7640D01*
X-18970Y90D02*
Y840D01*
X-14470Y90D02*
Y840D01*
X-2600Y6590D02*
X-1600D01*
X-2100Y6090D02*
Y7090D01*
X-6650Y18770D02*
X-6450D01*
Y18970D01*
X-10050Y18770D02*
Y18970D01*
Y18770D02*
X-9850D01*
X-6650Y22470D02*
X-6450D01*
Y22270D02*
Y22470D01*
X-8050Y3260D02*
X-3550D01*
X-8050Y9510D02*
X-3550D01*
X-5800D02*
Y10810D01*
X-8050Y5010D02*
Y9510D01*
X-3550Y5010D02*
Y9510D01*
X-8050Y4010D02*
Y5010D01*
X-6800Y9510D02*
Y10810D01*
X-3550Y4010D02*
Y5010D01*
X-4800Y9510D02*
Y10810D01*
X-8050Y3260D02*
Y4010D01*
X-3550Y3260D02*
Y4010D01*
X-18400Y37640D02*
Y40640D01*
X-5400Y37640D02*
Y40640D01*
X-18400Y40140D02*
X-5400D01*
X-18400Y40640D02*
X-5400D01*
X-18400Y37640D02*
X-5400D01*
X-19400Y240D02*
Y3240D01*
X-22400Y240D02*
Y3240D01*
X-19400D01*
X-22400Y2740D02*
X-19400D01*
X-22400Y240D02*
X-19400D01*
X-3000Y35140D02*
Y38140D01*
X0Y35140D02*
Y38140D01*
X-3000Y35140D02*
X0D01*
X-3000Y35640D02*
X0D01*
X-3000Y38140D02*
X0D01*
X-3960Y36790D02*
X-3640D01*
X-13850Y160D02*
X-9350D01*
X-13850Y6410D02*
X-9350D01*
X-11600D02*
Y7710D01*
X-13850Y1910D02*
Y6410D01*
X-9350Y1910D02*
Y6410D01*
X-13850Y910D02*
Y1910D01*
X-12600Y6410D02*
Y7710D01*
X-9350Y910D02*
Y1910D01*
X-10600Y6410D02*
Y7710D01*
X-13850Y160D02*
Y910D01*
X-9350Y160D02*
Y910D01*
X-11950Y9350D02*
Y9970D01*
X-11170Y9350D02*
Y9970D01*
X-12450Y9350D02*
Y9970D01*
X-11950D01*
X-12450Y9350D02*
X-11950D01*
X-17270Y9280D02*
Y9900D01*
X-16490Y9280D02*
Y9900D01*
X-17770Y9280D02*
Y9900D01*
X-17270D01*
X-17770Y9280D02*
X-17270D01*
X-8200Y2810D02*
X-3200D01*
X-8200Y-290D02*
X-3200D01*
X-8200Y260D02*
X-3200D01*
Y-290D02*
Y2810D01*
X-8200Y-290D02*
Y2810D01*
X-10200Y9430D02*
Y9750D01*
X-16200Y11430D02*
Y11750D01*
X-2950Y21990D02*
Y25990D01*
X-450Y21990D02*
Y25990D01*
X50Y21990D02*
Y25990D01*
X-2950D02*
X50D01*
X-2950Y21990D02*
X50D01*
X-6400Y26430D02*
Y26750D01*
X-6560Y24590D02*
X-6240D01*
X-2350Y17990D02*
X650D01*
X-2350Y20990D02*
X650D01*
Y17990D02*
Y20990D01*
X150Y17990D02*
Y20990D01*
X-2350Y17990D02*
Y20990D01*
X-6960Y12990D02*
X-6640D01*
X-4560Y23190D02*
X-4240D01*
X-4560Y24790D02*
X-4240D01*
X-10760Y15730D02*
X-10440D01*
X-5560Y24790D02*
X-5240D01*
X-2290Y16810D02*
X710D01*
X-2290Y13810D02*
X710D01*
X-2290D02*
Y16810D01*
X-1790Y13810D02*
Y16810D01*
X710Y13810D02*
Y16810D01*
X-7200Y17630D02*
Y17950D01*
X-10160Y17790D02*
X-9840D01*
X-9600Y24030D02*
Y24350D01*
X-5500Y32240D02*
X-5250D01*
X-8750D02*
Y35740D01*
X-5250Y32240D02*
Y35740D01*
X-8750Y32240D02*
X-5500D01*
X-8750Y35740D02*
X-5250D01*
X-17960Y31590D02*
X-17640D01*
X-2350Y27240D02*
X650D01*
X-2350Y33190D02*
X650D01*
X150Y27240D02*
Y33190D01*
X650Y27240D02*
Y33190D01*
X-2350Y27240D02*
Y33190D01*
X-22360Y24390D02*
X-22040D01*
X-4250Y29290D02*
Y30540D01*
X-7900D02*
X-4250D01*
X-7900Y29290D02*
Y30540D01*
Y29290D02*
X-4250D01*
X-22150Y25440D02*
X-19150D01*
X-22150Y31390D02*
X-19150D01*
X-19650Y25440D02*
Y31390D01*
X-19150Y25440D02*
Y31390D01*
X-22150Y25440D02*
Y31390D01*
X-16560Y36590D02*
X-16240D01*
X-15180Y35150D02*
Y35680D01*
X-14810Y36050D01*
X-9310Y27660D02*
Y28120D01*
X-13620Y13620D02*
Y14220D01*
X-13320D01*
X-13220Y14120D01*
Y13920D01*
X-13320Y13820D01*
X-13620D01*
X-13420D02*
X-13220Y13620D01*
X-13020Y14120D02*
X-12920Y14220D01*
X-12720D01*
X-12620Y14120D01*
Y14020D01*
X-12720Y13920D01*
X-12820D01*
X-12720D01*
X-12620Y13820D01*
Y13720D01*
X-12720Y13620D01*
X-12920D01*
X-13020Y13720D01*
X-12021Y14220D02*
X-12220Y14120D01*
X-12420Y13920D01*
Y13720D01*
X-12320Y13620D01*
X-12120D01*
X-12021Y13720D01*
Y13820D01*
X-12120Y13920D01*
X-12420D01*
X-16930Y13650D02*
Y14250D01*
X-16630D01*
X-16530Y14150D01*
Y13950D01*
X-16630Y13850D01*
X-16930D01*
X-16730D02*
X-16530Y13650D01*
X-16330Y14150D02*
X-16230Y14250D01*
X-16030D01*
X-15930Y14150D01*
Y14050D01*
X-16030Y13950D01*
X-16130D01*
X-16030D01*
X-15930Y13850D01*
Y13750D01*
X-16030Y13650D01*
X-16230D01*
X-16330Y13750D01*
X-15331Y14250D02*
X-15730D01*
Y13950D01*
X-15530Y14050D01*
X-15430D01*
X-15331Y13950D01*
Y13750D01*
X-15430Y13650D01*
X-15630D01*
X-15730Y13750D01*
X-5250Y27960D02*
Y28360D01*
X-5050D01*
X-4983Y28293D01*
Y28160D01*
X-5050Y28093D01*
X-5250D01*
X-5117D02*
X-4983Y27960D01*
X-4850Y28293D02*
X-4783Y28360D01*
X-4650D01*
X-4584Y28293D01*
Y28227D01*
X-4650Y28160D01*
X-4717D01*
X-4650D01*
X-4584Y28093D01*
Y28027D01*
X-4650Y27960D01*
X-4783D01*
X-4850Y28027D01*
X-4450Y27960D02*
X-4317D01*
X-4384D01*
Y28360D01*
X-4450Y28293D01*
X-5360Y28620D02*
Y29020D01*
X-5160D01*
X-5093Y28953D01*
Y28820D01*
X-5160Y28753D01*
X-5360D01*
X-5227D02*
X-5093Y28620D01*
X-4960Y28953D02*
X-4893Y29020D01*
X-4760D01*
X-4694Y28953D01*
Y28887D01*
X-4760Y28820D01*
X-4827D01*
X-4760D01*
X-4694Y28753D01*
Y28687D01*
X-4760Y28620D01*
X-4893D01*
X-4960Y28687D01*
X-4294Y28620D02*
X-4560D01*
X-4294Y28887D01*
Y28953D01*
X-4360Y29020D01*
X-4494D01*
X-4560Y28953D01*
X-5266Y30706D02*
Y31106D01*
X-5066D01*
X-4999Y31039D01*
Y30906D01*
X-5066Y30839D01*
X-5266D01*
X-5132D02*
X-4999Y30706D01*
X-4866Y31039D02*
X-4799Y31106D01*
X-4666D01*
X-4599Y31039D01*
Y30972D01*
X-4666Y30906D01*
X-4732D01*
X-4666D01*
X-4599Y30839D01*
Y30772D01*
X-4666Y30706D01*
X-4799D01*
X-4866Y30772D01*
X-4466Y31039D02*
X-4399Y31106D01*
X-4266D01*
X-4199Y31039D01*
Y30972D01*
X-4266Y30906D01*
X-4333D01*
X-4266D01*
X-4199Y30839D01*
Y30772D01*
X-4266Y30706D01*
X-4399D01*
X-4466Y30772D01*
X-5320Y31310D02*
Y31710D01*
X-5120D01*
X-5053Y31643D01*
Y31510D01*
X-5120Y31443D01*
X-5320D01*
X-5187D02*
X-5053Y31310D01*
X-4920Y31643D02*
X-4853Y31710D01*
X-4720D01*
X-4654Y31643D01*
Y31577D01*
X-4720Y31510D01*
X-4787D01*
X-4720D01*
X-4654Y31443D01*
Y31377D01*
X-4720Y31310D01*
X-4853D01*
X-4920Y31377D01*
X-4320Y31310D02*
Y31710D01*
X-4520Y31510D01*
X-4254D01*
X-2560Y34750D02*
X-2660Y34850D01*
X-2860D01*
X-2960Y34750D01*
Y34350D01*
X-2860Y34250D01*
X-2660D01*
X-2560Y34350D01*
X-2360Y34750D02*
X-2260Y34850D01*
X-2060D01*
X-1960Y34750D01*
Y34650D01*
X-2060Y34550D01*
X-2160D01*
X-2060D01*
X-1960Y34450D01*
Y34350D01*
X-2060Y34250D01*
X-2260D01*
X-2360Y34350D01*
X-1361Y34850D02*
X-1760D01*
Y34550D01*
X-1560Y34650D01*
X-1460D01*
X-1361Y34550D01*
Y34350D01*
X-1460Y34250D01*
X-1660D01*
X-1760Y34350D01*
X-3420Y35270D02*
X-3320Y35370D01*
Y35570D01*
X-3420Y35670D01*
X-3820D01*
X-3920Y35570D01*
Y35370D01*
X-3820Y35270D01*
X-3420Y35070D02*
X-3320Y34970D01*
Y34770D01*
X-3420Y34670D01*
X-3520D01*
X-3620Y34770D01*
Y34870D01*
Y34770D01*
X-3720Y34670D01*
X-3820D01*
X-3920Y34770D01*
Y34970D01*
X-3820Y35070D01*
X-3920Y34170D02*
X-3320D01*
X-3620Y34470D01*
Y34071D01*
X-4290Y35330D02*
X-4190Y35430D01*
Y35630D01*
X-4290Y35730D01*
X-4690D01*
X-4790Y35630D01*
Y35430D01*
X-4690Y35330D01*
X-4290Y35130D02*
X-4190Y35030D01*
Y34830D01*
X-4290Y34730D01*
X-4390D01*
X-4490Y34830D01*
Y34930D01*
Y34830D01*
X-4590Y34730D01*
X-4690D01*
X-4790Y34830D01*
Y35030D01*
X-4690Y35130D01*
X-4290Y34530D02*
X-4190Y34430D01*
Y34230D01*
X-4290Y34131D01*
X-4390D01*
X-4490Y34230D01*
Y34330D01*
Y34230D01*
X-4590Y34131D01*
X-4690D01*
X-4790Y34230D01*
Y34430D01*
X-4690Y34530D01*
X-370Y34770D02*
X-470Y34870D01*
X-670D01*
X-770Y34770D01*
Y34370D01*
X-670Y34270D01*
X-470D01*
X-370Y34370D01*
X-170Y34770D02*
X-70Y34870D01*
X130D01*
X230Y34770D01*
Y34670D01*
X130Y34570D01*
X30D01*
X130D01*
X230Y34470D01*
Y34370D01*
X130Y34270D01*
X-70D01*
X-170Y34370D01*
X829Y34270D02*
X430D01*
X829Y34670D01*
Y34770D01*
X730Y34870D01*
X530D01*
X430Y34770D01*
X-17790Y-780D02*
Y-180D01*
X-17490D01*
X-17390Y-280D01*
Y-480D01*
X-17490Y-580D01*
X-17790D01*
X-17590D02*
X-17390Y-780D01*
X-16790Y-280D02*
X-16890Y-180D01*
X-17090D01*
X-17190Y-280D01*
Y-680D01*
X-17090Y-780D01*
X-16890D01*
X-16790Y-680D01*
Y-480D01*
X-16990D01*
X-16590Y-280D02*
X-16490Y-180D01*
X-16290D01*
X-16191Y-280D01*
Y-380D01*
X-16290Y-480D01*
X-16390D01*
X-16290D01*
X-16191Y-580D01*
Y-680D01*
X-16290Y-780D01*
X-16490D01*
X-16590Y-680D01*
X-590Y4400D02*
X-690Y4500D01*
X-890D01*
X-990Y4400D01*
Y4000D01*
X-890Y3900D01*
X-690D01*
X-590Y4000D01*
X10Y3900D02*
X-390D01*
X10Y4300D01*
Y4400D01*
X-90Y4500D01*
X-290D01*
X-390Y4400D01*
X609Y4500D02*
X410Y4400D01*
X210Y4200D01*
Y4000D01*
X310Y3900D01*
X510D01*
X609Y4000D01*
Y4100D01*
X510Y4200D01*
X210D01*
X-11880Y23100D02*
Y22600D01*
X-11780Y22500D01*
X-11580D01*
X-11480Y22600D01*
Y23100D01*
X-10880Y22500D02*
X-11280D01*
X-10880Y22900D01*
Y23000D01*
X-10980Y23100D01*
X-11180D01*
X-11280Y23000D01*
X-7050Y28310D02*
X-7150Y28410D01*
X-7350D01*
X-7450Y28310D01*
Y27910D01*
X-7350Y27810D01*
X-7150D01*
X-7050Y27910D01*
X-6850Y28410D02*
X-6450D01*
Y28310D01*
X-6850Y27910D01*
Y27810D01*
X-7160Y31880D02*
X-7260Y31980D01*
X-7460D01*
X-7560Y31880D01*
Y31480D01*
X-7460Y31380D01*
X-7260D01*
X-7160Y31480D01*
X-6560Y31980D02*
X-6760Y31880D01*
X-6960Y31680D01*
Y31480D01*
X-6860Y31380D01*
X-6660D01*
X-6560Y31480D01*
Y31580D01*
X-6660Y31680D01*
X-6960D01*
X-18670Y39340D02*
X-19270D01*
X-18970D01*
Y38940D01*
X-18670D01*
X-19270D01*
X-18670Y38740D02*
X-19270D01*
Y38440D01*
X-19170Y38340D01*
X-18770D01*
X-18670Y38440D01*
Y38740D01*
X-19270Y37741D02*
Y38140D01*
X-18870Y37741D01*
X-18770D01*
X-18670Y37840D01*
Y38040D01*
X-18770Y38140D01*
X-2550Y14130D02*
X-2450Y14230D01*
Y14430D01*
X-2550Y14530D01*
X-2950D01*
X-3050Y14430D01*
Y14230D01*
X-2950Y14130D01*
X-2550Y13930D02*
X-2450Y13830D01*
Y13630D01*
X-2550Y13530D01*
X-2650D01*
X-2750Y13630D01*
Y13730D01*
Y13630D01*
X-2850Y13530D01*
X-2950D01*
X-3050Y13630D01*
Y13830D01*
X-2950Y13930D01*
X-3050Y13330D02*
Y13130D01*
Y13230D01*
X-2450D01*
X-2550Y13330D01*
X-8940Y25210D02*
X-9040Y25310D01*
X-9240D01*
X-9340Y25210D01*
Y24810D01*
X-9240Y24710D01*
X-9040D01*
X-8940Y24810D01*
X-8340Y24710D02*
X-8740D01*
X-8340Y25110D01*
Y25210D01*
X-8440Y25310D01*
X-8640D01*
X-8740Y25210D01*
X-8140Y24810D02*
X-8040Y24710D01*
X-7840D01*
X-7741Y24810D01*
Y25210D01*
X-7840Y25310D01*
X-8040D01*
X-8140Y25210D01*
Y25110D01*
X-8040Y25010D01*
X-7741D01*
X-5520Y36400D02*
X-5620Y36500D01*
X-5820D01*
X-5920Y36400D01*
Y36000D01*
X-5820Y35900D01*
X-5620D01*
X-5520Y36000D01*
X-5320Y35900D02*
X-5120D01*
X-5220D01*
Y36500D01*
X-5320Y36400D01*
X-4420Y36500D02*
X-4820D01*
Y36200D01*
X-4620Y36300D01*
X-4520D01*
X-4420Y36200D01*
Y36000D01*
X-4520Y35900D01*
X-4720D01*
X-4820Y36000D01*
X-18170Y26720D02*
X-18070Y26820D01*
Y27020D01*
X-18170Y27120D01*
X-18570D01*
X-18670Y27020D01*
Y26820D01*
X-18570Y26720D01*
Y26520D02*
X-18670Y26420D01*
Y26220D01*
X-18570Y26120D01*
X-18170D01*
X-18070Y26220D01*
Y26420D01*
X-18170Y26520D01*
X-18270D01*
X-18370Y26420D01*
Y26120D01*
X-8901Y30419D02*
X-9501Y30019D01*
X-8901D02*
X-9501Y30419D01*
Y29819D02*
Y29619D01*
Y29719D01*
X-8901D01*
X-9001Y29819D01*
X-15380Y32450D02*
Y31950D01*
X-15280Y31850D01*
X-15080D01*
X-14980Y31950D01*
Y32450D01*
X-14780Y31850D02*
X-14580D01*
X-14680D01*
Y32450D01*
X-14780Y32350D01*
X-12620Y-730D02*
Y-130D01*
X-12320D01*
X-12220Y-230D01*
Y-430D01*
X-12320Y-530D01*
X-12620D01*
X-12420D02*
X-12220Y-730D01*
X-11620Y-230D02*
X-11720Y-130D01*
X-11920D01*
X-12020Y-230D01*
Y-630D01*
X-11920Y-730D01*
X-11720D01*
X-11620Y-630D01*
Y-430D01*
X-11820D01*
X-11120Y-730D02*
Y-130D01*
X-11420Y-430D01*
X-11021D01*
X-17503Y25084D02*
Y25684D01*
X-17203D01*
X-17103Y25584D01*
Y25384D01*
X-17203Y25284D01*
X-17503D01*
X-17303D02*
X-17103Y25084D01*
X-16503Y25584D02*
X-16603Y25684D01*
X-16803D01*
X-16903Y25584D01*
Y25184D01*
X-16803Y25084D01*
X-16603D01*
X-16503Y25184D01*
Y25384D01*
X-16703D01*
X-15903Y25084D02*
X-16303D01*
X-15903Y25484D01*
Y25584D01*
X-16003Y25684D01*
X-16203D01*
X-16303Y25584D01*
X-22490Y23090D02*
X-21890D01*
Y22790D01*
X-21990Y22690D01*
X-22190D01*
X-22290Y22790D01*
Y23090D01*
Y22890D02*
X-22490Y22690D01*
X-21990Y22090D02*
X-21890Y22190D01*
Y22390D01*
X-21990Y22490D01*
X-22390D01*
X-22490Y22390D01*
Y22190D01*
X-22390Y22090D01*
X-22190D01*
Y22290D01*
X-22490Y21890D02*
Y21690D01*
Y21790D01*
X-21890D01*
X-21990Y21890D01*
X-9570Y25510D02*
Y26110D01*
X-9270D01*
X-9170Y26010D01*
Y25810D01*
X-9270Y25710D01*
X-9570D01*
X-9370D02*
X-9170Y25510D01*
X-8970Y26010D02*
X-8870Y26110D01*
X-8670D01*
X-8570Y26010D01*
Y25910D01*
X-8670Y25810D01*
X-8770D01*
X-8670D01*
X-8570Y25710D01*
Y25610D01*
X-8670Y25510D01*
X-8870D01*
X-8970Y25610D01*
X-8370Y26010D02*
X-8270Y26110D01*
X-8070D01*
X-7971Y26010D01*
Y25610D01*
X-8070Y25510D01*
X-8270D01*
X-8370Y25610D01*
Y26010D01*
X-10050Y16900D02*
X-9450D01*
Y16600D01*
X-9550Y16500D01*
X-9750D01*
X-9850Y16600D01*
Y16900D01*
Y16700D02*
X-10050Y16500D01*
Y15900D02*
Y16300D01*
X-9650Y15900D01*
X-9550D01*
X-9450Y16000D01*
Y16200D01*
X-9550Y16300D01*
X-9950Y15700D02*
X-10050Y15600D01*
Y15400D01*
X-9950Y15301D01*
X-9550D01*
X-9450Y15400D01*
Y15600D01*
X-9550Y15700D01*
X-9650D01*
X-9750Y15600D01*
Y15301D01*
X-12050Y23620D02*
Y24220D01*
X-11750D01*
X-11650Y24120D01*
Y23920D01*
X-11750Y23820D01*
X-12050D01*
X-11850D02*
X-11650Y23620D01*
X-11050D02*
X-11450D01*
X-11050Y24020D01*
Y24120D01*
X-11150Y24220D01*
X-11350D01*
X-11450Y24120D01*
X-10850D02*
X-10750Y24220D01*
X-10550D01*
X-10451Y24120D01*
Y24020D01*
X-10550Y23920D01*
X-10451Y23820D01*
Y23720D01*
X-10550Y23620D01*
X-10750D01*
X-10850Y23720D01*
Y23820D01*
X-10750Y23920D01*
X-10850Y24020D01*
Y24120D01*
X-10750Y23920D02*
X-10550D01*
X-5610Y24010D02*
X-5010D01*
Y23710D01*
X-5110Y23610D01*
X-5310D01*
X-5410Y23710D01*
Y24010D01*
Y23810D02*
X-5610Y23610D01*
Y23010D02*
Y23410D01*
X-5210Y23010D01*
X-5110D01*
X-5010Y23110D01*
Y23310D01*
X-5110Y23410D01*
X-5010Y22810D02*
Y22411D01*
X-5110D01*
X-5510Y22810D01*
X-5610D01*
X-8540Y18060D02*
X-7940D01*
Y17760D01*
X-8040Y17660D01*
X-8240D01*
X-8340Y17760D01*
Y18060D01*
Y17860D02*
X-8540Y17660D01*
Y17060D02*
Y17460D01*
X-8140Y17060D01*
X-8040D01*
X-7940Y17160D01*
Y17360D01*
X-8040Y17460D01*
X-7940Y16461D02*
X-8040Y16660D01*
X-8240Y16860D01*
X-8440D01*
X-8540Y16760D01*
Y16560D01*
X-8440Y16461D01*
X-8340D01*
X-8240Y16560D01*
Y16860D01*
X-11770Y16560D02*
X-11170D01*
Y16260D01*
X-11270Y16160D01*
X-11470D01*
X-11570Y16260D01*
Y16560D01*
Y16360D02*
X-11770Y16160D01*
Y15560D02*
Y15960D01*
X-11370Y15560D01*
X-11270D01*
X-11170Y15660D01*
Y15860D01*
X-11270Y15960D01*
X-11170Y14961D02*
Y15360D01*
X-11470D01*
X-11370Y15160D01*
Y15060D01*
X-11470Y14961D01*
X-11670D01*
X-11770Y15060D01*
Y15260D01*
X-11670Y15360D01*
X-3820Y16010D02*
X-3220D01*
Y15710D01*
X-3320Y15610D01*
X-3520D01*
X-3620Y15710D01*
Y16010D01*
Y15810D02*
X-3820Y15610D01*
Y15010D02*
Y15410D01*
X-3420Y15010D01*
X-3320D01*
X-3220Y15110D01*
Y15310D01*
X-3320Y15410D01*
X-3820Y14510D02*
X-3220D01*
X-3520Y14810D01*
Y14411D01*
X-4640Y16050D02*
X-4040D01*
Y15750D01*
X-4140Y15650D01*
X-4340D01*
X-4440Y15750D01*
Y16050D01*
Y15850D02*
X-4640Y15650D01*
Y15050D02*
Y15450D01*
X-4240Y15050D01*
X-4140D01*
X-4040Y15150D01*
Y15350D01*
X-4140Y15450D01*
Y14850D02*
X-4040Y14750D01*
Y14550D01*
X-4140Y14451D01*
X-4240D01*
X-4340Y14550D01*
Y14650D01*
Y14550D01*
X-4440Y14451D01*
X-4540D01*
X-4640Y14550D01*
Y14750D01*
X-4540Y14850D01*
X-5460Y16060D02*
X-4860D01*
Y15760D01*
X-4960Y15660D01*
X-5160D01*
X-5260Y15760D01*
Y16060D01*
Y15860D02*
X-5460Y15660D01*
Y15060D02*
Y15460D01*
X-5060Y15060D01*
X-4960D01*
X-4860Y15160D01*
Y15360D01*
X-4960Y15460D01*
X-5460Y14461D02*
Y14860D01*
X-5060Y14461D01*
X-4960D01*
X-4860Y14560D01*
Y14760D01*
X-4960Y14860D01*
X-3800Y25800D02*
X-3200D01*
Y25500D01*
X-3300Y25400D01*
X-3500D01*
X-3600Y25500D01*
Y25800D01*
Y25600D02*
X-3800Y25400D01*
Y24800D02*
Y25200D01*
X-3400Y24800D01*
X-3300D01*
X-3200Y24900D01*
Y25100D01*
X-3300Y25200D01*
X-3800Y24600D02*
Y24400D01*
Y24500D01*
X-3200D01*
X-3300Y24600D01*
X-3840Y24100D02*
X-3240D01*
Y23800D01*
X-3340Y23700D01*
X-3540D01*
X-3640Y23800D01*
Y24100D01*
Y23900D02*
X-3840Y23700D01*
Y23100D02*
Y23500D01*
X-3440Y23100D01*
X-3340D01*
X-3240Y23200D01*
Y23400D01*
X-3340Y23500D01*
Y22900D02*
X-3240Y22800D01*
Y22600D01*
X-3340Y22501D01*
X-3740D01*
X-3840Y22600D01*
Y22800D01*
X-3740Y22900D01*
X-3340D01*
X-7810Y13650D02*
X-7210D01*
Y13350D01*
X-7310Y13250D01*
X-7510D01*
X-7610Y13350D01*
Y13650D01*
Y13450D02*
X-7810Y13250D01*
Y13050D02*
Y12850D01*
Y12950D01*
X-7210D01*
X-7310Y13050D01*
X-7710Y12550D02*
X-7810Y12450D01*
Y12250D01*
X-7710Y12150D01*
X-7310D01*
X-7210Y12250D01*
Y12450D01*
X-7310Y12550D01*
X-7410D01*
X-7510Y12450D01*
Y12150D01*
X-7320Y24580D02*
X-6720D01*
Y24280D01*
X-6820Y24180D01*
X-7020D01*
X-7120Y24280D01*
Y24580D01*
Y24380D02*
X-7320Y24180D01*
Y23980D02*
Y23780D01*
Y23880D01*
X-6720D01*
X-6820Y23980D01*
Y23480D02*
X-6720Y23380D01*
Y23180D01*
X-6820Y23080D01*
X-6920D01*
X-7020Y23180D01*
X-7120Y23080D01*
X-7220D01*
X-7320Y23180D01*
Y23380D01*
X-7220Y23480D01*
X-7120D01*
X-7020Y23380D01*
X-6920Y23480D01*
X-6820D01*
X-7020Y23380D02*
Y23180D01*
X-7100Y26960D02*
Y27560D01*
X-6800D01*
X-6700Y27460D01*
Y27260D01*
X-6800Y27160D01*
X-7100D01*
X-6900D02*
X-6700Y26960D01*
X-6500D02*
X-6300D01*
X-6400D01*
Y27560D01*
X-6500Y27460D01*
X-6000Y27560D02*
X-5600D01*
Y27460D01*
X-6000Y27060D01*
Y26960D01*
X-10910Y9990D02*
Y10590D01*
X-10610D01*
X-10510Y10490D01*
Y10290D01*
X-10610Y10190D01*
X-10910D01*
X-10710D02*
X-10510Y9990D01*
X-10310D02*
X-10110D01*
X-10210D01*
Y10590D01*
X-10310Y10490D01*
X-9410Y10590D02*
X-9610Y10490D01*
X-9810Y10290D01*
Y10090D01*
X-9710Y9990D01*
X-9510D01*
X-9410Y10090D01*
Y10190D01*
X-9510Y10290D01*
X-9810D01*
X-15280Y11190D02*
Y11790D01*
X-14980D01*
X-14880Y11690D01*
Y11490D01*
X-14980Y11390D01*
X-15280D01*
X-15080D02*
X-14880Y11190D01*
X-14680D02*
X-14480D01*
X-14580D01*
Y11790D01*
X-14680Y11690D01*
X-13780Y11790D02*
X-14180D01*
Y11490D01*
X-13980Y11590D01*
X-13880D01*
X-13780Y11490D01*
Y11290D01*
X-13880Y11190D01*
X-14080D01*
X-14180Y11290D01*
X-4120Y39120D02*
X-3520D01*
Y38820D01*
X-3620Y38720D01*
X-3820D01*
X-3920Y38820D01*
Y39120D01*
Y38920D02*
X-4120Y38720D01*
Y38520D02*
Y38320D01*
Y38420D01*
X-3520D01*
X-3620Y38520D01*
X-4120Y37720D02*
X-3520D01*
X-3820Y38020D01*
Y37620D01*
X-13460Y17890D02*
X-12860D01*
Y17590D01*
X-12960Y17490D01*
X-13160D01*
X-13260Y17590D01*
Y17890D01*
Y17690D02*
X-13460Y17490D01*
Y17290D02*
Y17090D01*
Y17190D01*
X-12860D01*
X-12960Y17290D01*
Y16790D02*
X-12860Y16690D01*
Y16490D01*
X-12960Y16390D01*
X-13060D01*
X-13160Y16490D01*
Y16590D01*
Y16490D01*
X-13260Y16390D01*
X-13360D01*
X-13460Y16490D01*
Y16690D01*
X-13360Y16790D01*
X-14360Y17910D02*
X-13760D01*
Y17610D01*
X-13860Y17510D01*
X-14060D01*
X-14160Y17610D01*
Y17910D01*
Y17710D02*
X-14360Y17510D01*
Y17310D02*
Y17110D01*
Y17210D01*
X-13760D01*
X-13860Y17310D01*
X-14360Y16410D02*
Y16810D01*
X-13960Y16410D01*
X-13860D01*
X-13760Y16510D01*
Y16710D01*
X-13860Y16810D01*
X-18960Y32100D02*
X-18360D01*
Y31800D01*
X-18460Y31700D01*
X-18660D01*
X-18760Y31800D01*
Y32100D01*
Y31900D02*
X-18960Y31700D01*
Y31500D02*
Y31300D01*
Y31400D01*
X-18360D01*
X-18460Y31500D01*
X-18960Y31000D02*
Y30800D01*
Y30900D01*
X-18360D01*
X-18460Y31000D01*
X-16800Y35100D02*
X-16200D01*
Y34800D01*
X-16300Y34700D01*
X-16500D01*
X-16600Y34800D01*
Y35100D01*
Y34900D02*
X-16800Y34700D01*
Y34500D02*
Y34300D01*
Y34400D01*
X-16200D01*
X-16300Y34500D01*
Y34000D02*
X-16200Y33900D01*
Y33700D01*
X-16300Y33600D01*
X-16700D01*
X-16800Y33700D01*
Y33900D01*
X-16700Y34000D01*
X-16300D01*
X-16000Y35730D02*
X-15400D01*
Y35430D01*
X-15500Y35330D01*
X-15700D01*
X-15800Y35430D01*
Y35730D01*
Y35530D02*
X-16000Y35330D01*
X-15900Y35130D02*
X-16000Y35030D01*
Y34830D01*
X-15900Y34730D01*
X-15500D01*
X-15400Y34830D01*
Y35030D01*
X-15500Y35130D01*
X-15600D01*
X-15700Y35030D01*
Y34730D01*
X-15230Y34970D02*
X-14630D01*
Y34670D01*
X-14730Y34570D01*
X-14930D01*
X-15030Y34670D01*
Y34970D01*
Y34770D02*
X-15230Y34570D01*
X-14730Y34370D02*
X-14630Y34270D01*
Y34070D01*
X-14730Y33970D01*
X-14830D01*
X-14930Y34070D01*
X-15030Y33970D01*
X-15130D01*
X-15230Y34070D01*
Y34270D01*
X-15130Y34370D01*
X-15030D01*
X-14930Y34270D01*
X-14830Y34370D01*
X-14730D01*
X-14930Y34270D02*
Y34070D01*
X-13840Y35200D02*
Y35800D01*
X-13540D01*
X-13440Y35700D01*
Y35500D01*
X-13540Y35400D01*
X-13840D01*
X-13640D02*
X-13440Y35200D01*
X-13240Y35800D02*
X-12840D01*
Y35700D01*
X-13240Y35300D01*
Y35200D01*
X-12640Y35780D02*
X-12040D01*
Y35480D01*
X-12140Y35380D01*
X-12340D01*
X-12440Y35480D01*
Y35780D01*
Y35580D02*
X-12640Y35380D01*
X-12040Y34780D02*
X-12140Y34980D01*
X-12340Y35180D01*
X-12540D01*
X-12640Y35080D01*
Y34880D01*
X-12540Y34780D01*
X-12440D01*
X-12340Y34880D01*
Y35180D01*
X-11830Y35180D02*
Y35780D01*
X-11530D01*
X-11430Y35680D01*
Y35480D01*
X-11530Y35380D01*
X-11830D01*
X-11630D02*
X-11430Y35180D01*
X-10830Y35780D02*
X-11230D01*
Y35480D01*
X-11030Y35580D01*
X-10930D01*
X-10830Y35480D01*
Y35280D01*
X-10930Y35180D01*
X-11130D01*
X-11230Y35280D01*
X-10610Y34910D02*
X-10010D01*
Y34610D01*
X-10110Y34510D01*
X-10310D01*
X-10410Y34610D01*
Y34910D01*
Y34710D02*
X-10610Y34510D01*
Y34010D02*
X-10010D01*
X-10310Y34310D01*
Y33910D01*
X-9620Y34630D02*
X-9020D01*
Y34330D01*
X-9120Y34230D01*
X-9320D01*
X-9420Y34330D01*
Y34630D01*
Y34430D02*
X-9620Y34230D01*
X-9120Y34030D02*
X-9020Y33930D01*
Y33730D01*
X-9120Y33630D01*
X-9220D01*
X-9320Y33730D01*
Y33830D01*
Y33730D01*
X-9420Y33630D01*
X-9520D01*
X-9620Y33730D01*
Y33930D01*
X-9520Y34030D01*
X-8695Y36095D02*
Y36695D01*
X-8395D01*
X-8295Y36595D01*
Y36395D01*
X-8395Y36295D01*
X-8695D01*
X-8495D02*
X-8295Y36095D01*
X-7695D02*
X-8095D01*
X-7695Y36495D01*
Y36595D01*
X-7795Y36695D01*
X-7995D01*
X-8095Y36595D01*
X-21720Y24610D02*
X-21120D01*
Y24310D01*
X-21220Y24210D01*
X-21420D01*
X-21520Y24310D01*
Y24610D01*
Y24410D02*
X-21720Y24210D01*
Y24010D02*
Y23810D01*
Y23910D01*
X-21120D01*
X-21220Y24010D01*
X-5780Y16640D02*
Y17040D01*
X-5880Y17140D01*
X-6080D01*
X-6180Y17040D01*
Y16640D01*
X-6080Y16540D01*
X-5880D01*
X-5980Y16740D02*
X-5780Y16540D01*
X-5880D02*
X-5780Y16640D01*
X-5280Y16540D02*
Y17140D01*
X-5580Y16840D01*
X-5180D01*
X-7950Y10220D02*
Y10620D01*
X-8050Y10720D01*
X-8250D01*
X-8350Y10620D01*
Y10220D01*
X-8250Y10120D01*
X-8050D01*
X-8150Y10320D02*
X-7950Y10120D01*
X-8050D02*
X-7950Y10220D01*
X-7750Y10620D02*
X-7650Y10720D01*
X-7450D01*
X-7350Y10620D01*
Y10520D01*
X-7450Y10420D01*
X-7550D01*
X-7450D01*
X-7350Y10320D01*
Y10220D01*
X-7450Y10120D01*
X-7650D01*
X-7750Y10220D01*
X-3430Y26670D02*
Y27070D01*
X-3530Y27170D01*
X-3730D01*
X-3830Y27070D01*
Y26670D01*
X-3730Y26570D01*
X-3530D01*
X-3630Y26770D02*
X-3430Y26570D01*
X-3530D02*
X-3430Y26670D01*
X-2830Y26570D02*
X-3230D01*
X-2830Y26970D01*
Y27070D01*
X-2930Y27170D01*
X-3130D01*
X-3230Y27070D01*
X-18660Y36300D02*
Y36700D01*
X-18760Y36800D01*
X-18960D01*
X-19060Y36700D01*
Y36300D01*
X-18960Y36200D01*
X-18760D01*
X-18860Y36400D02*
X-18660Y36200D01*
X-18760D02*
X-18660Y36300D01*
X-18460Y36200D02*
X-18260D01*
X-18360D01*
Y36800D01*
X-18460Y36700D01*
X-1780Y13570D02*
Y12970D01*
Y13270D01*
X-1380D01*
Y13570D01*
Y12970D01*
X-1180Y13570D02*
Y12970D01*
X-880D01*
X-780Y13070D01*
Y13470D01*
X-880Y13570D01*
X-1180D01*
X-580Y12970D02*
X-380D01*
X-480D01*
Y13570D01*
X-580Y13470D01*
X-81Y12970D02*
X119D01*
X19D01*
Y13570D01*
X-81Y13470D01*
X-3030Y17660D02*
Y17060D01*
Y17360D01*
X-2630D01*
Y17660D01*
Y17060D01*
X-2430Y17660D02*
Y17060D01*
X-2130D01*
X-2030Y17160D01*
Y17560D01*
X-2130Y17660D01*
X-2430D01*
X-1830Y17060D02*
X-1630D01*
X-1730D01*
Y17660D01*
X-1830Y17560D01*
X-1331D02*
X-1231Y17660D01*
X-1031D01*
X-931Y17560D01*
Y17160D01*
X-1031Y17060D01*
X-1231D01*
X-1331Y17160D01*
Y17560D01*
X-2870Y21800D02*
Y21200D01*
Y21500D01*
X-2470D01*
Y21800D01*
Y21200D01*
X-2270Y21800D02*
Y21200D01*
X-1970D01*
X-1870Y21300D01*
Y21700D01*
X-1970Y21800D01*
X-2270D01*
X-1670Y21300D02*
X-1570Y21200D01*
X-1370D01*
X-1271Y21300D01*
Y21700D01*
X-1370Y21800D01*
X-1570D01*
X-1670Y21700D01*
Y21600D01*
X-1570Y21500D01*
X-1271D01*
X-7370Y-520D02*
Y-1120D01*
Y-820D01*
X-6970D01*
Y-520D01*
Y-1120D01*
X-6770Y-520D02*
Y-1120D01*
X-6470D01*
X-6370Y-1020D01*
Y-620D01*
X-6470Y-520D01*
X-6770D01*
X-5771D02*
X-5970Y-620D01*
X-6170Y-820D01*
Y-1020D01*
X-6070Y-1120D01*
X-5870D01*
X-5771Y-1020D01*
Y-920D01*
X-5870Y-820D01*
X-6170D01*
X790Y36620D02*
X190D01*
X490D01*
Y36220D01*
X790D01*
X190D01*
X790Y36020D02*
X190D01*
Y35720D01*
X290Y35620D01*
X690D01*
X790Y35720D01*
Y36020D01*
Y35021D02*
Y35420D01*
X490D01*
X590Y35220D01*
Y35120D01*
X490Y35021D01*
X290D01*
X190Y35120D01*
Y35320D01*
X290Y35420D01*
X-21480Y4310D02*
Y3710D01*
Y4010D01*
X-21080D01*
Y4310D01*
Y3710D01*
X-20880Y4310D02*
Y3710D01*
X-20580D01*
X-20480Y3810D01*
Y4210D01*
X-20580Y4310D01*
X-20880D01*
X-19980Y3710D02*
Y4310D01*
X-20280Y4010D01*
X-19881D01*
X-2500Y27010D02*
Y26410D01*
Y26710D01*
X-2100D01*
Y27010D01*
Y26410D01*
X-1900Y27010D02*
Y26410D01*
X-1600D01*
X-1500Y26510D01*
Y26910D01*
X-1600Y27010D01*
X-1900D01*
X-1300Y26910D02*
X-1200Y27010D01*
X-1000D01*
X-901Y26910D01*
Y26810D01*
X-1000Y26710D01*
X-1100D01*
X-1000D01*
X-901Y26610D01*
Y26510D01*
X-1000Y26410D01*
X-1200D01*
X-1300Y26510D01*
X-22095Y32335D02*
Y31735D01*
Y32035D01*
X-21695D01*
Y32335D01*
Y31735D01*
X-21495Y32335D02*
Y31735D01*
X-21195D01*
X-21095Y31835D01*
Y32235D01*
X-21195Y32335D01*
X-21495D01*
X-20895Y31735D02*
X-20695D01*
X-20795D01*
Y32335D01*
X-20895Y32235D01*
X-1940Y410D02*
X-2340D01*
Y110D01*
X-2140D01*
X-2340D01*
Y-190D01*
X-1740D02*
X-1540D01*
X-1640D01*
Y410D01*
X-1740Y310D01*
X-4100Y17860D02*
Y17260D01*
X-3800D01*
X-3700Y17360D01*
Y17760D01*
X-3800Y17860D01*
X-4100D01*
X-3500Y17260D02*
X-3300D01*
X-3400D01*
Y17860D01*
X-3500Y17760D01*
X-8810Y16470D02*
X-8710Y16570D01*
Y16770D01*
X-8810Y16870D01*
X-9210D01*
X-9310Y16770D01*
Y16570D01*
X-9210Y16470D01*
X-8810Y16270D02*
X-8710Y16170D01*
Y15970D01*
X-8810Y15870D01*
X-8910D01*
X-9010Y15970D01*
Y16070D01*
Y15970D01*
X-9110Y15870D01*
X-9210D01*
X-9310Y15970D01*
Y16170D01*
X-9210Y16270D01*
X-8810Y15670D02*
X-8710Y15570D01*
Y15370D01*
X-8810Y15271D01*
X-9210D01*
X-9310Y15370D01*
Y15570D01*
X-9210Y15670D01*
X-8810D01*
X-10010Y23440D02*
X-10110Y23540D01*
X-10310D01*
X-10410Y23440D01*
Y23040D01*
X-10310Y22940D01*
X-10110D01*
X-10010Y23040D01*
X-9410Y22940D02*
X-9810D01*
X-9410Y23340D01*
Y23440D01*
X-9510Y23540D01*
X-9710D01*
X-9810Y23440D01*
X-9210D02*
X-9110Y23540D01*
X-8910D01*
X-8811Y23440D01*
Y23340D01*
X-8910Y23240D01*
X-8811Y23140D01*
Y23040D01*
X-8910Y22940D01*
X-9110D01*
X-9210Y23040D01*
Y23140D01*
X-9110Y23240D01*
X-9210Y23340D01*
Y23440D01*
X-9110Y23240D02*
X-8910D01*
X-2980Y19110D02*
X-2880Y19210D01*
Y19410D01*
X-2980Y19510D01*
X-3380D01*
X-3480Y19410D01*
Y19210D01*
X-3380Y19110D01*
X-3480Y18510D02*
Y18910D01*
X-3080Y18510D01*
X-2980D01*
X-2880Y18610D01*
Y18810D01*
X-2980Y18910D01*
X-2880Y18310D02*
Y17911D01*
X-2980D01*
X-3380Y18310D01*
X-3480D01*
X-19110Y10700D02*
X-19210Y10800D01*
X-19410D01*
X-19510Y10700D01*
Y10300D01*
X-19410Y10200D01*
X-19210D01*
X-19110Y10300D01*
X-18510Y10200D02*
X-18910D01*
X-18510Y10600D01*
Y10700D01*
X-18610Y10800D01*
X-18810D01*
X-18910Y10700D01*
X-17911Y10800D02*
X-18310D01*
Y10500D01*
X-18110Y10600D01*
X-18010D01*
X-17911Y10500D01*
Y10300D01*
X-18010Y10200D01*
X-18210D01*
X-18310Y10300D01*
X-19910Y9750D02*
X-20010Y9850D01*
X-20210D01*
X-20310Y9750D01*
Y9350D01*
X-20210Y9250D01*
X-20010D01*
X-19910Y9350D01*
X-19310Y9250D02*
X-19710D01*
X-19310Y9650D01*
Y9750D01*
X-19410Y9850D01*
X-19610D01*
X-19710Y9750D01*
X-18810Y9250D02*
Y9850D01*
X-19110Y9550D01*
X-18711D01*
X-13210Y11530D02*
X-13310Y11630D01*
X-13510D01*
X-13610Y11530D01*
Y11130D01*
X-13510Y11030D01*
X-13310D01*
X-13210Y11130D01*
X-12610Y11030D02*
X-13010D01*
X-12610Y11430D01*
Y11530D01*
X-12710Y11630D01*
X-12910D01*
X-13010Y11530D01*
X-12410D02*
X-12310Y11630D01*
X-12110D01*
X-12011Y11530D01*
Y11430D01*
X-12110Y11330D01*
X-12210D01*
X-12110D01*
X-12011Y11230D01*
Y11130D01*
X-12110Y11030D01*
X-12310D01*
X-12410Y11130D01*
X-14530Y9880D02*
X-14630Y9980D01*
X-14830D01*
X-14930Y9880D01*
Y9480D01*
X-14830Y9380D01*
X-14630D01*
X-14530Y9480D01*
X-13930Y9380D02*
X-14330D01*
X-13930Y9780D01*
Y9880D01*
X-14030Y9980D01*
X-14230D01*
X-14330Y9880D01*
X-13331Y9380D02*
X-13730D01*
X-13331Y9780D01*
Y9880D01*
X-13430Y9980D01*
X-13630D01*
X-13730Y9880D01*
X-17740Y20240D02*
X-17840Y20340D01*
X-18040D01*
X-18140Y20240D01*
Y19840D01*
X-18040Y19740D01*
X-17840D01*
X-17740Y19840D01*
X-17140Y19740D02*
X-17540D01*
X-17140Y20140D01*
Y20240D01*
X-17240Y20340D01*
X-17440D01*
X-17540Y20240D01*
X-16940Y19740D02*
X-16740D01*
X-16840D01*
Y20340D01*
X-16940Y20240D01*
X-17750Y19430D02*
X-17850Y19530D01*
X-18050D01*
X-18150Y19430D01*
Y19030D01*
X-18050Y18930D01*
X-17850D01*
X-17750Y19030D01*
X-17150Y18930D02*
X-17550D01*
X-17150Y19330D01*
Y19430D01*
X-17250Y19530D01*
X-17450D01*
X-17550Y19430D01*
X-16950D02*
X-16850Y19530D01*
X-16650D01*
X-16551Y19430D01*
Y19030D01*
X-16650Y18930D01*
X-16850D01*
X-16950Y19030D01*
Y19430D01*
X-20300Y18440D02*
X-20400Y18540D01*
X-20600D01*
X-20700Y18440D01*
Y18040D01*
X-20600Y17940D01*
X-20400D01*
X-20300Y18040D01*
X-20100Y17940D02*
X-19900D01*
X-20000D01*
Y18540D01*
X-20100Y18440D01*
X-19600Y18040D02*
X-19500Y17940D01*
X-19300D01*
X-19200Y18040D01*
Y18440D01*
X-19300Y18540D01*
X-19500D01*
X-19600Y18440D01*
Y18340D01*
X-19500Y18240D01*
X-19200D01*
X-19280Y21010D02*
X-19380Y21110D01*
X-19580D01*
X-19680Y21010D01*
Y20610D01*
X-19580Y20510D01*
X-19380D01*
X-19280Y20610D01*
X-19080Y20510D02*
X-18880D01*
X-18980D01*
Y21110D01*
X-19080Y21010D01*
X-18580D02*
X-18480Y21110D01*
X-18280D01*
X-18180Y21010D01*
Y20910D01*
X-18280Y20810D01*
X-18180Y20710D01*
Y20610D01*
X-18280Y20510D01*
X-18480D01*
X-18580Y20610D01*
Y20710D01*
X-18480Y20810D01*
X-18580Y20910D01*
Y21010D01*
X-18480Y20810D02*
X-18280D01*
X-19680Y8160D02*
X-19780Y8260D01*
X-19980D01*
X-20080Y8160D01*
Y7760D01*
X-19980Y7660D01*
X-19780D01*
X-19680Y7760D01*
X-19480Y7660D02*
X-19280D01*
X-19380D01*
Y8260D01*
X-19480Y8160D01*
X-18980Y8260D02*
X-18580D01*
Y8160D01*
X-18980Y7760D01*
Y7660D01*
X-19410Y7120D02*
X-19510Y7220D01*
X-19710D01*
X-19810Y7120D01*
Y6720D01*
X-19710Y6620D01*
X-19510D01*
X-19410Y6720D01*
X-19210Y6620D02*
X-19010D01*
X-19110D01*
Y7220D01*
X-19210Y7120D01*
X-18310Y7220D02*
X-18510Y7120D01*
X-18710Y6920D01*
Y6720D01*
X-18610Y6620D01*
X-18410D01*
X-18310Y6720D01*
Y6820D01*
X-18410Y6920D01*
X-18710D01*
X-5570Y37230D02*
X-5670Y37330D01*
X-5870D01*
X-5970Y37230D01*
Y36830D01*
X-5870Y36730D01*
X-5670D01*
X-5570Y36830D01*
X-5370Y36730D02*
X-5170D01*
X-5270D01*
Y37330D01*
X-5370Y37230D01*
X-4570Y36730D02*
Y37330D01*
X-4870Y37030D01*
X-4470D01*
X-15790Y29200D02*
X-15690Y29300D01*
Y29500D01*
X-15790Y29600D01*
X-16190D01*
X-16290Y29500D01*
Y29300D01*
X-16190Y29200D01*
X-16290Y29000D02*
Y28800D01*
Y28900D01*
X-15690D01*
X-15790Y29000D01*
Y28500D02*
X-15690Y28400D01*
Y28200D01*
X-15790Y28100D01*
X-15890D01*
X-15990Y28200D01*
Y28300D01*
Y28200D01*
X-16090Y28100D01*
X-16190D01*
X-16290Y28200D01*
Y28400D01*
X-16190Y28500D01*
X-12150Y25510D02*
X-12050Y25610D01*
Y25810D01*
X-12150Y25910D01*
X-12550D01*
X-12650Y25810D01*
Y25610D01*
X-12550Y25510D01*
X-12650Y25310D02*
Y25110D01*
Y25210D01*
X-12050D01*
X-12150Y25310D01*
X-12650Y24410D02*
Y24810D01*
X-12250Y24410D01*
X-12150D01*
X-12050Y24510D01*
Y24710D01*
X-12150Y24810D01*
X-12950Y25470D02*
X-12850Y25570D01*
Y25770D01*
X-12950Y25870D01*
X-13350D01*
X-13450Y25770D01*
Y25570D01*
X-13350Y25470D01*
X-13450Y25270D02*
Y25070D01*
Y25170D01*
X-12850D01*
X-12950Y25270D01*
X-13450Y24770D02*
Y24570D01*
Y24670D01*
X-12850D01*
X-12950Y24770D01*
X-16850Y27380D02*
X-16750Y27480D01*
Y27680D01*
X-16850Y27780D01*
X-17250D01*
X-17350Y27680D01*
Y27480D01*
X-17250Y27380D01*
X-17350Y27180D02*
Y26980D01*
Y27080D01*
X-16750D01*
X-16850Y27180D01*
Y26680D02*
X-16750Y26580D01*
Y26380D01*
X-16850Y26280D01*
X-17250D01*
X-17350Y26380D01*
Y26580D01*
X-17250Y26680D01*
X-16850D01*
X-9870Y26765D02*
X-9770Y26865D01*
Y27065D01*
X-9870Y27165D01*
X-10270D01*
X-10370Y27065D01*
Y26865D01*
X-10270Y26765D01*
X-9870Y26565D02*
X-9770Y26465D01*
Y26265D01*
X-9870Y26166D01*
X-9970D01*
X-10070Y26265D01*
X-10170Y26166D01*
X-10270D01*
X-10370Y26265D01*
Y26465D01*
X-10270Y26565D01*
X-10170D01*
X-10070Y26465D01*
X-9970Y26565D01*
X-9870D01*
X-10070Y26465D02*
Y26265D01*
X-8590Y31890D02*
X-8690Y31990D01*
X-8890D01*
X-8990Y31890D01*
Y31490D01*
X-8890Y31390D01*
X-8690D01*
X-8590Y31490D01*
X-7990Y31990D02*
X-8390D01*
Y31690D01*
X-8190Y31790D01*
X-8090D01*
X-7990Y31690D01*
Y31490D01*
X-8090Y31390D01*
X-8290D01*
X-8390Y31490D01*
X-9030Y26980D02*
X-8930Y27080D01*
Y27280D01*
X-9030Y27380D01*
X-9430D01*
X-9530Y27280D01*
Y27080D01*
X-9430Y26980D01*
X-9530Y26480D02*
X-8930D01*
X-9230Y26780D01*
Y26380D01*
X-12470Y33590D02*
X-12370Y33690D01*
Y33890D01*
X-12470Y33990D01*
X-12870D01*
X-12970Y33890D01*
Y33690D01*
X-12870Y33590D01*
X-12470Y33390D02*
X-12370Y33290D01*
Y33090D01*
X-12470Y32990D01*
X-12570D01*
X-12670Y33090D01*
Y33190D01*
Y33090D01*
X-12770Y32990D01*
X-12870D01*
X-12970Y33090D01*
Y33290D01*
X-12870Y33390D01*
X-13990Y32710D02*
X-14090Y32810D01*
X-14290D01*
X-14390Y32710D01*
Y32310D01*
X-14290Y32210D01*
X-14090D01*
X-13990Y32310D01*
X-13390Y32210D02*
X-13790D01*
X-13390Y32610D01*
Y32710D01*
X-13490Y32810D01*
X-13690D01*
X-13790Y32710D01*
X-9610Y32760D02*
X-9710Y32860D01*
X-9910D01*
X-10010Y32760D01*
Y32360D01*
X-9910Y32260D01*
X-9710D01*
X-9610Y32360D01*
X-9410Y32260D02*
X-9210D01*
X-9310D01*
Y32860D01*
X-9410Y32760D01*
X-16600Y-2330D02*
X-17000D01*
Y-2930D01*
X-16600D01*
X-17000Y-2630D02*
X-16800D01*
X-16000Y-2830D02*
Y-2430D01*
X-16100Y-2330D01*
X-16300D01*
X-16400Y-2430D01*
Y-2830D01*
X-16300Y-2930D01*
X-16100D01*
X-16200Y-2730D02*
X-16000Y-2930D01*
X-16100D02*
X-16000Y-2830D01*
X-15401Y-2330D02*
X-15800D01*
Y-2630D01*
X-15600D01*
X-15800D01*
Y-2930D01*
X-15201D02*
X-15001D01*
X-15101D01*
Y-2330D01*
X-15201Y-2430D01*
X-14301Y-2930D02*
X-14701D01*
X-14301Y-2530D01*
Y-2430D01*
X-14401Y-2330D01*
X-14601D01*
X-14701Y-2430D01*
X-13801Y-2930D02*
Y-2330D01*
X-14101Y-2630D01*
X-13701D01*
X-13501Y-2430D02*
X-13401Y-2330D01*
X-13201D01*
X-13101Y-2430D01*
Y-2530D01*
X-13201Y-2630D01*
X-13101Y-2730D01*
Y-2830D01*
X-13201Y-2930D01*
X-13401D01*
X-13501Y-2830D01*
Y-2730D01*
X-13401Y-2630D01*
X-13501Y-2530D01*
Y-2430D01*
X-13401Y-2630D02*
X-13201D01*
X-11302Y-2330D02*
X-11702D01*
Y-2630D01*
X-11502D01*
X-11702D01*
Y-2930D01*
X-11002Y-2530D02*
X-10802D01*
X-10702Y-2630D01*
Y-2930D01*
X-11002D01*
X-11102Y-2830D01*
X-11002Y-2730D01*
X-10702D01*
X-10502Y-2930D02*
Y-2530D01*
X-10202D01*
X-10102Y-2630D01*
Y-2930D01*
X-8903Y-2330D02*
X-9302D01*
Y-2630D01*
X-9103D01*
X-9302D01*
Y-2930D01*
X-8703D02*
X-8503D01*
X-8603D01*
Y-2530D01*
X-8703D01*
X-8203D02*
X-7803Y-2930D01*
X-8003Y-2730D01*
X-7803Y-2530D01*
X-8203Y-2930D01*
X-7503Y-2430D02*
Y-2530D01*
X-7603D01*
X-7403D01*
X-7503D01*
Y-2830D01*
X-7403Y-2930D01*
X-7103Y-2530D02*
Y-2830D01*
X-7003Y-2930D01*
X-6703D01*
Y-2530D01*
X-6503D02*
Y-2930D01*
Y-2730D01*
X-6403Y-2630D01*
X-6303Y-2530D01*
X-6203D01*
X-5604Y-2930D02*
X-5804D01*
X-5904Y-2830D01*
Y-2630D01*
X-5804Y-2530D01*
X-5604D01*
X-5504Y-2630D01*
Y-2730D01*
X-5904D01*
X-4704Y-2930D02*
Y-2330D01*
X-4404D01*
X-4304Y-2430D01*
Y-2630D01*
X-4404Y-2730D01*
X-4704D01*
X-4504D02*
X-4304Y-2930D01*
X-3804D02*
X-4004D01*
X-4104Y-2830D01*
Y-2630D01*
X-4004Y-2530D01*
X-3804D01*
X-3704Y-2630D01*
Y-2730D01*
X-4104D01*
X-3504Y-2530D02*
X-3304Y-2930D01*
X-3104Y-2530D01*
X-2505Y-2930D02*
X-2905D01*
X-2505Y-2530D01*
Y-2430D01*
X-2605Y-2330D01*
X-2805D01*
X-2905Y-2430D01*
X-22880Y30230D02*
X-22280D01*
Y29930D01*
X-22380Y29830D01*
X-22580D01*
X-22680Y29930D01*
Y30230D01*
X-22480Y29630D02*
X-22880D01*
X-22680D01*
X-22580Y29530D01*
X-22480Y29430D01*
Y29330D01*
X-22880Y28930D02*
Y28730D01*
X-22780Y28631D01*
X-22580D01*
X-22480Y28730D01*
Y28930D01*
X-22580Y29030D01*
X-22780D01*
X-22880Y28930D01*
X-23080Y28231D02*
Y28131D01*
X-22980Y28031D01*
X-22480D01*
Y28331D01*
X-22580Y28431D01*
X-22780D01*
X-22880Y28331D01*
Y28031D01*
X-12990Y12800D02*
X-12890Y12700D01*
X-12690D01*
X-12590Y12800D01*
Y13200D01*
X-12690Y13300D01*
X-12890D01*
X-12990Y13200D01*
Y13100D01*
X-12890Y13000D01*
X-12590D01*
X-12390Y13300D02*
Y12900D01*
X-12190Y12700D01*
X-11990Y12900D01*
Y13300D01*
X-16590Y13320D02*
X-16790Y13220D01*
X-16990Y13020D01*
Y12820D01*
X-16890Y12720D01*
X-16690D01*
X-16590Y12820D01*
Y12920D01*
X-16690Y13020D01*
X-16990D01*
X-16390Y13320D02*
Y12920D01*
X-16190Y12720D01*
X-15990Y12920D01*
Y13320D01*
X-21900Y-500D02*
X-21700D01*
X-21800D01*
Y100D01*
X-21900Y-0D01*
X-21000Y-500D02*
X-21400D01*
X-21000Y-100D01*
Y-0D01*
X-21100Y100D01*
X-21300D01*
X-21400Y-0D01*
X-20800Y100D02*
Y-300D01*
X-20600Y-500D01*
X-20400Y-300D01*
Y100D01*
X-20201Y-500D02*
X-20001D01*
X-20101D01*
Y-100D01*
X-20201D01*
X-19701Y-500D02*
Y-100D01*
X-19401D01*
X-19301Y-200D01*
Y-500D01*
X1650Y16970D02*
Y16770D01*
Y16870D01*
X1050D01*
Y16970D01*
Y16770D01*
X1550Y15470D02*
X1650Y15570D01*
Y15770D01*
X1550Y15870D01*
X1450D01*
X1350Y15770D01*
Y15570D01*
X1250Y15470D01*
X1150D01*
X1050Y15570D01*
Y15770D01*
X1150Y15870D01*
X1050Y14971D02*
Y15171D01*
X1150Y15271D01*
X1350D01*
X1450Y15171D01*
Y14971D01*
X1350Y14871D01*
X1250D01*
Y15271D01*
X1050Y14671D02*
X1450D01*
Y14371D01*
X1350Y14271D01*
X1050D01*
Y14071D02*
Y13771D01*
X1150Y13671D01*
X1250Y13771D01*
Y13971D01*
X1350Y14071D01*
X1450Y13971D01*
Y13671D01*
X1050Y13171D02*
Y13371D01*
X1150Y13471D01*
X1350D01*
X1450Y13371D01*
Y13171D01*
X1350Y13071D01*
X1250D01*
Y13471D01*
X1460Y20250D02*
Y20650D01*
X1160D01*
Y20450D01*
Y20650D01*
X860D01*
Y20050D02*
X1260D01*
X1460Y19850D01*
X1260Y19650D01*
X860D01*
X1160D01*
Y20050D01*
X860Y19450D02*
X1460D01*
X860Y19051D01*
X1460D01*
X860Y18451D02*
Y18851D01*
X1260Y18451D01*
X1360D01*
X1460Y18551D01*
Y18751D01*
X1360Y18851D01*
X990Y24530D02*
Y24930D01*
X690D01*
Y24730D01*
Y24930D01*
X390D01*
Y24330D02*
X790D01*
X990Y24130D01*
X790Y23930D01*
X390D01*
X690D01*
Y24330D01*
X390Y23730D02*
X990D01*
X390Y23331D01*
X990D01*
X390Y23131D02*
Y22931D01*
Y23031D01*
X990D01*
X890Y23131D01*
X1410Y32550D02*
X810D01*
Y32250D01*
X910Y32150D01*
X1010D01*
X1110Y32250D01*
Y32550D01*
Y32250D01*
X1210Y32150D01*
X1310D01*
X1410Y32250D01*
Y32550D01*
X1210Y31950D02*
X910D01*
X810Y31850D01*
Y31550D01*
X1210D01*
X1310Y31250D02*
X1210D01*
Y31350D01*
Y31150D01*
Y31250D01*
X910D01*
X810Y31150D01*
X1310Y30751D02*
X1210D01*
Y30851D01*
Y30651D01*
Y30751D01*
X910D01*
X810Y30651D01*
Y30251D02*
Y30051D01*
X910Y29951D01*
X1110D01*
X1210Y30051D01*
Y30251D01*
X1110Y30351D01*
X910D01*
X810Y30251D01*
Y29751D02*
X1210D01*
Y29451D01*
X1110Y29351D01*
X810D01*
Y29151D02*
Y28851D01*
X910Y28751D01*
X1010Y28851D01*
Y29051D01*
X1110Y29151D01*
X1210Y29051D01*
Y28751D01*
X-2570Y38980D02*
Y38380D01*
X-2170D01*
X-1570Y38980D02*
X-1970D01*
Y38380D01*
X-1570D01*
X-1970Y38680D02*
X-1770D01*
X-1370Y38980D02*
Y38380D01*
X-1070D01*
X-971Y38480D01*
Y38880D01*
X-1070Y38980D01*
X-1370D01*
X-20540Y40430D02*
Y39830D01*
X-20140D01*
X-19540Y40330D02*
X-19640Y40430D01*
X-19840D01*
X-19940Y40330D01*
Y39930D01*
X-19840Y39830D01*
X-19640D01*
X-19540Y39930D01*
X-19340Y40430D02*
Y39830D01*
X-19040D01*
X-18941Y39930D01*
Y40330D01*
X-19040Y40430D01*
X-19340D01*
X-21270Y35180D02*
Y34580D01*
X-20970D01*
X-20870Y34680D01*
Y35080D01*
X-20970Y35180D01*
X-21270D01*
X-20670Y34580D02*
Y35180D01*
X-20370D01*
X-20270Y35080D01*
Y34880D01*
X-20370Y34780D01*
X-20670D01*
X-20470D02*
X-20270Y34580D01*
X-19671Y35180D02*
X-19870D01*
X-19770D01*
Y34680D01*
X-19870Y34580D01*
X-19970D01*
X-20070Y34680D01*
X-28350Y-11050D02*
Y-11650D01*
X-28050D01*
X-27950Y-11550D01*
Y-11150D01*
X-28050Y-11050D01*
X-28350D01*
X-27750Y-11650D02*
Y-11050D01*
X-27450D01*
X-27350Y-11150D01*
Y-11350D01*
X-27450Y-11450D01*
X-27750D01*
X-27550D02*
X-27350Y-11650D01*
X-26751Y-11050D02*
X-26950D01*
X-26850D01*
Y-11550D01*
X-26950Y-11650D01*
X-27050D01*
X-27150Y-11550D01*
X-5080Y39726D02*
X-5020Y39756D01*
X-4931Y39845D01*
Y39220D01*
X-2730Y12010D02*
X-3130D01*
X-2730Y12410D01*
Y12510D01*
X-2830Y12610D01*
X-3030D01*
X-3130Y12510D01*
X-2130Y12610D02*
X-2530D01*
Y12310D01*
X-2330Y12410D01*
X-2230D01*
X-2130Y12310D01*
Y12110D01*
X-2230Y12010D01*
X-2430D01*
X-2530Y12110D01*
X-1930Y12610D02*
Y12010D01*
X-1730Y12210D01*
X-1531Y12010D01*
Y12610D01*
X-731Y12010D02*
X-531D01*
X-631D01*
Y12610D01*
X-731Y12510D01*
X-131Y12010D02*
X69D01*
X169Y12110D01*
Y12310D01*
X69Y12410D01*
X-131D01*
X-231Y12310D01*
Y12110D01*
X-131Y12010D01*
X369Y12610D02*
Y12010D01*
Y12310D01*
X469Y12410D01*
X669D01*
X769Y12310D01*
Y12010D01*
X969D02*
Y12410D01*
X1069D01*
X1169Y12310D01*
Y12010D01*
Y12310D01*
X1269Y12410D01*
X1369Y12310D01*
Y12010D01*
X-6770Y29920D02*
G03*
X-6770Y29920I-630J0D01*
G01*
X-1600Y2590D02*
Y3090D01*
Y1590D02*
X-1100D01*
X-1600D02*
Y2090D01*
Y5590D02*
Y6090D01*
Y4590D02*
Y5090D01*
Y8090D02*
Y8590D01*
Y7090D02*
Y7590D01*
Y11090D02*
Y11590D01*
Y10090D02*
Y10590D01*
X1400Y2590D02*
Y3090D01*
Y1590D02*
Y2090D01*
X400Y1590D02*
X900D01*
X1400Y5590D02*
Y6090D01*
Y4590D02*
Y5090D01*
Y8590D02*
Y9090D01*
Y7590D02*
Y8090D01*
X900Y11590D02*
X1400D01*
X-100D02*
X400D01*
X1400Y10590D02*
Y11090D01*
X-1600Y3590D02*
Y4090D01*
Y9090D02*
Y9590D01*
X1400Y3590D02*
Y4090D01*
Y6590D02*
Y7090D01*
Y9590D02*
Y10090D01*
X-600Y1590D02*
X-100D01*
X-1100Y11590D02*
X-600D01*
D32*
X-14920Y8166D02*
X-14956Y8149D01*
X-15009Y8095D01*
Y8470D01*
X-4080Y11366D02*
X-4116Y11349D01*
X-4169Y11295D01*
Y11670D01*
X-19250Y2344D02*
X-19214Y2361D01*
X-19161Y2415D01*
Y2040D01*
X-3270Y36444D02*
X-3234Y36461D01*
X-3181Y36515D01*
Y36140D01*
X-9840Y8286D02*
X-9876Y8269D01*
X-9929Y8215D01*
Y8590D01*
X-476Y21680D02*
X-459Y21644D01*
X-405Y21591D01*
X-780D01*
X184Y17650D02*
X201Y17614D01*
X255Y17561D01*
X-120D01*
X184Y17180D02*
X201Y17144D01*
X255Y17091D01*
X-120D01*
D35*
X-3400Y36110D02*
Y36310D01*
X-3640Y36110D02*
X-3400D01*
X-4200D02*
Y36310D01*
Y36110D02*
X-3960D01*
X-3400Y37270D02*
Y37470D01*
X-3640D02*
X-3400D01*
X-4200Y37270D02*
Y37470D01*
X-3960D01*
X-10880Y9190D02*
X-10680D01*
X-10880D02*
Y9430D01*
Y9990D02*
X-10680D01*
X-10880Y9750D02*
Y9990D01*
X-9720Y9190D02*
X-9520D01*
Y9430D01*
X-9720Y9990D02*
X-9520D01*
Y9750D02*
Y9990D01*
X-16880Y11190D02*
X-16680D01*
X-16880D02*
Y11430D01*
Y11990D02*
X-16680D01*
X-16880Y11750D02*
Y11990D01*
X-15720Y11190D02*
X-15520D01*
Y11430D01*
X-15720Y11990D02*
X-15520D01*
Y11750D02*
Y11990D01*
X-7080Y26190D02*
X-6880D01*
X-7080D02*
Y26430D01*
Y26990D02*
X-6880D01*
X-7080Y26750D02*
Y26990D01*
X-5920Y26190D02*
X-5720D01*
Y26430D01*
X-5920Y26990D02*
X-5720D01*
Y26750D02*
Y26990D01*
X-6000Y23910D02*
Y24110D01*
X-6240Y23910D02*
X-6000D01*
X-6800D02*
Y24110D01*
Y23910D02*
X-6560D01*
X-6000Y25070D02*
Y25270D01*
X-6240D02*
X-6000D01*
X-6800Y25070D02*
Y25270D01*
X-6560D01*
X-6400Y12310D02*
Y12510D01*
X-6640Y12310D02*
X-6400D01*
X-7200D02*
Y12510D01*
Y12310D02*
X-6960D01*
X-6400Y13470D02*
Y13670D01*
X-6640D02*
X-6400D01*
X-7200Y13470D02*
Y13670D01*
X-6960D01*
X-4000Y22510D02*
Y22710D01*
X-4240Y22510D02*
X-4000D01*
X-4800D02*
Y22710D01*
Y22510D02*
X-4560D01*
X-4000Y23670D02*
Y23870D01*
X-4240D02*
X-4000D01*
X-4800Y23670D02*
Y23870D01*
X-4560D01*
X-4800Y25270D02*
Y25470D01*
X-4560D01*
X-4000Y25270D02*
Y25470D01*
X-4240D02*
X-4000D01*
X-4800Y24110D02*
Y24310D01*
Y24110D02*
X-4560D01*
X-4000D02*
Y24310D01*
X-4240Y24110D02*
X-4000D01*
X-10200Y15050D02*
Y15250D01*
X-10440Y15050D02*
X-10200D01*
X-11000D02*
Y15250D01*
Y15050D02*
X-10760D01*
X-10200Y16210D02*
Y16410D01*
X-10440D02*
X-10200D01*
X-11000Y16210D02*
Y16410D01*
X-10760D01*
X-5000Y24110D02*
Y24310D01*
X-5240Y24110D02*
X-5000D01*
X-5800D02*
Y24310D01*
Y24110D02*
X-5560D01*
X-5000Y25270D02*
Y25470D01*
X-5240D02*
X-5000D01*
X-5800Y25270D02*
Y25470D01*
X-5560D01*
X-6720Y18190D02*
X-6520D01*
Y17950D02*
Y18190D01*
X-6720Y17390D02*
X-6520D01*
Y17630D01*
X-7880Y18190D02*
X-7680D01*
X-7880Y17950D02*
Y18190D01*
Y17390D02*
X-7680D01*
X-7880D02*
Y17630D01*
X-9600Y17110D02*
Y17310D01*
X-9840Y17110D02*
X-9600D01*
X-10400D02*
Y17310D01*
Y17110D02*
X-10160D01*
X-9600Y18270D02*
Y18470D01*
X-9840D02*
X-9600D01*
X-10400Y18270D02*
Y18470D01*
X-10160D01*
X-10280Y23790D02*
X-10080D01*
X-10280D02*
Y24030D01*
Y24590D02*
X-10080D01*
X-10280Y24350D02*
Y24590D01*
X-9120Y23790D02*
X-8920D01*
Y24030D01*
X-9120Y24590D02*
X-8920D01*
Y24350D02*
Y24590D01*
X-17400Y30910D02*
Y31110D01*
X-17640Y30910D02*
X-17400D01*
X-18200D02*
Y31110D01*
Y30910D02*
X-17960D01*
X-17400Y32070D02*
Y32270D01*
X-17640D02*
X-17400D01*
X-18200Y32070D02*
Y32270D01*
X-17960D01*
X-22600Y24870D02*
Y25070D01*
X-22360D01*
X-21800Y24870D02*
Y25070D01*
X-22040D02*
X-21800D01*
X-22600Y23710D02*
Y23910D01*
Y23710D02*
X-22360D01*
X-21800D02*
Y23910D01*
X-22040Y23710D02*
X-21800D01*
X-16800Y37270D02*
X-16560D01*
X-16800Y37070D02*
Y37270D01*
X-16240D02*
X-16000D01*
Y37070D02*
Y37270D01*
X-16800Y35910D02*
X-16560D01*
X-16800D02*
Y36110D01*
X-16240Y35910D02*
X-16000D01*
Y36110D01*
D36*
X-4679Y20190D02*
X-4521D01*
X-4600Y20111D02*
Y20269D01*
D53*
X-17452Y20949D02*
G03*
X-17452Y20949I-49J0D01*
G01*
X-21570Y21848D02*
G03*
X-21570Y21848I-49J0D01*
G01*
X-5519Y26661D02*
G03*
X-5519Y26661I-49J0D01*
G01*
X-7480Y16958D02*
G03*
X-7480Y16958I-49J0D01*
G01*
X-18493Y35190D02*
G03*
X-18493Y35190I-49J0D01*
G01*
X-14293Y31437D02*
G03*
X-14293Y31437I-49J0D01*
G01*
D54*
X-3459Y28033D02*
X-3341D01*
X-3459Y28347D02*
X-3341D01*
X-3459Y29033D02*
X-3341D01*
X-3459Y29347D02*
X-3341D01*
X-3459Y30033D02*
X-3341D01*
X-3459Y30347D02*
X-3341D01*
X-3459Y31033D02*
X-3341D01*
X-3459Y31347D02*
X-3341D01*
X-2957Y33331D02*
Y33449D01*
X-2643Y33331D02*
Y33449D01*
X-3757Y33331D02*
Y33449D01*
X-3443Y33331D02*
Y33449D01*
X-4557Y33331D02*
Y33449D01*
X-4243Y33331D02*
Y33449D01*
X141Y33633D02*
X259D01*
X141Y33947D02*
X259D01*
X-7059Y30833D02*
X-6941D01*
X-7059Y31147D02*
X-6941D01*
X-7059Y28633D02*
X-6941D01*
X-7059Y28947D02*
X-6941D01*
X-3757Y13581D02*
Y13699D01*
X-3443Y13581D02*
Y13699D01*
X-4557Y13581D02*
Y13699D01*
X-4243Y13581D02*
Y13699D01*
X-5357Y13581D02*
Y13699D01*
X-5043Y13581D02*
Y13699D01*
X-15243Y36531D02*
Y36649D01*
X-15557Y36531D02*
Y36649D01*
X-14243Y36531D02*
Y36649D01*
X-14557Y36531D02*
Y36649D01*
X-13243Y36531D02*
Y36649D01*
X-13557Y36531D02*
Y36649D01*
X-12243Y36531D02*
Y36649D01*
X-12557Y36531D02*
Y36649D01*
X-11243Y36531D02*
Y36649D01*
X-11557Y36531D02*
Y36649D01*
X-10243Y36531D02*
Y36649D01*
X-10557Y36531D02*
Y36649D01*
X-9243Y36531D02*
Y36649D01*
X-9557Y36531D02*
Y36649D01*
X-2643Y15331D02*
Y15449D01*
X-2957Y15331D02*
Y15449D01*
X-8089Y24347D02*
X-7971D01*
X-8089Y24033D02*
X-7971D01*
X-6859Y36033D02*
X-6741D01*
X-6859Y36347D02*
X-6741D01*
X-6859Y37147D02*
X-6741D01*
X-6859Y36833D02*
X-6741D01*
X-18243Y27931D02*
Y28049D01*
X-18557Y27931D02*
Y28049D01*
X-14881Y21677D02*
Y21874D01*
X-17519Y21677D02*
X-14881D01*
X-17519D02*
Y21874D01*
X-21629Y22478D02*
X-18991D01*
X-21629Y23502D02*
X-18991D01*
X-21629Y22478D02*
Y23502D01*
X-18991Y22478D02*
Y23502D01*
X-15859Y20033D02*
X-15741D01*
X-15859Y20347D02*
X-15741D01*
X-15777Y19095D02*
X-15423D01*
X-15777Y19685D02*
X-15423D01*
X-20715Y20259D02*
X-20085D01*
X-20715Y18921D02*
X-20085D01*
X-20659Y20633D02*
X-20541D01*
X-20659Y20947D02*
X-20541D01*
X-21179Y7833D02*
X-21061D01*
X-21179Y8147D02*
X-21061D01*
X-21297Y6495D02*
X-20943D01*
X-21297Y7085D02*
X-20943D01*
X-12459Y10503D02*
X-12341D01*
X-12459Y10817D02*
X-12341D01*
X-17179Y10433D02*
X-17061D01*
X-17179Y10747D02*
X-17061D01*
X-4465Y27440D02*
X-4209D01*
Y27244D02*
Y27440D01*
X-5391D02*
X-5135D01*
X-5391Y27244D02*
Y27440D01*
X-3357Y20331D02*
Y20449D01*
X-3043Y20331D02*
Y20449D01*
X-3793Y18231D02*
Y19255D01*
X-5230Y18054D02*
X-3970D01*
X-5407Y22188D02*
X-3793D01*
X-5407Y21125D02*
Y22188D01*
X-3793Y21125D02*
Y22188D01*
X-3970Y18054D02*
X-3791Y18231D01*
X-5407D02*
X-5230Y18054D01*
X-5407Y18231D02*
Y19255D01*
X-6750Y15599D02*
Y15855D01*
X-6946Y15599D02*
X-6750D01*
Y16525D02*
Y16781D01*
X-6946D02*
X-6750D01*
X-8059Y23347D02*
X-7941D01*
X-8059Y23033D02*
X-7941D01*
X-9157Y17531D02*
Y17649D01*
X-8843Y17531D02*
Y17649D01*
X-7259Y25633D02*
X-7141D01*
X-7259Y25947D02*
X-7141D01*
X-17439Y35970D02*
X-17183D01*
Y35773D02*
Y35970D01*
X-18365D02*
X-18109D01*
X-18365Y35773D02*
Y35970D01*
X-13357Y18731D02*
Y18849D01*
X-13043Y18731D02*
Y18849D01*
X-13843Y18731D02*
Y18849D01*
X-14157Y18731D02*
Y18849D01*
X-10859Y32747D02*
X-10741D01*
X-10859Y32433D02*
X-10741D01*
X-12047Y33476D02*
Y33594D01*
X-11733Y33476D02*
Y33594D01*
X-13757Y33531D02*
Y33649D01*
X-13443Y33531D02*
Y33649D01*
X-14027Y28563D02*
Y28750D01*
Y28563D02*
X-13840D01*
X-10985D02*
X-10798D01*
Y28750D01*
Y31605D02*
Y31792D01*
X-10985D02*
X-10798D01*
X-14027D02*
X-13840D01*
X-14027Y31605D02*
Y31792D01*
X-8459Y31147D02*
X-8341D01*
X-8459Y30833D02*
X-8341D01*
X-9043Y28731D02*
Y28849D01*
X-9357Y28731D02*
Y28849D01*
X-9843Y27931D02*
Y28049D01*
X-10157Y27931D02*
Y28049D01*
X-12243Y26931D02*
Y27049D01*
X-12557Y26931D02*
Y27049D01*
X-13043Y26931D02*
Y27049D01*
X-13357Y26931D02*
Y27049D01*
X-16495Y26813D02*
Y27167D01*
X-15905Y26813D02*
Y27167D01*
X-15043Y28531D02*
Y28649D01*
X-15357Y28531D02*
Y28649D01*
D55*
X-8600Y1115D02*
X-8552Y1138D01*
X-8481Y1210D01*
Y710D01*
X-345Y27100D02*
X-322Y27052D01*
X-250Y26981D01*
X-750D01*
X-20165Y25170D02*
X-20142Y25122D01*
X-20070Y25051D01*
X-20570D01*
M02*
