%FSLAX24Y24*%
%MOIN*%
G70*
G01*
G75*
G04 Layer_Physical_Order=1*
G04 Layer_Color=255*
%ADD10C,0.0060*%
%ADD11C,0.0100*%
%ADD12R,0.0374X0.0394*%
%ADD13R,0.0394X0.0374*%
%ADD14R,0.0870X0.0240*%
%ADD15R,0.2677X0.2717*%
%ADD16R,0.0374X0.0748*%
%ADD17R,0.0374X0.0945*%
%ADD18R,0.1299X0.0945*%
%ADD19R,0.0430X0.0390*%
%ADD20R,0.0492X0.0669*%
%ADD21R,0.0709X0.1417*%
%ADD22R,0.0620X0.0500*%
%ADD23R,0.0390X0.0430*%
%ADD24R,0.0354X0.0433*%
%ADD25R,0.1299X0.0945*%
%ADD26R,0.0433X0.0354*%
%ADD27R,0.0787X0.0787*%
%ADD28R,0.0787X0.0787*%
%ADD29O,0.0079X0.0295*%
%ADD30O,0.0295X0.0079*%
%ADD31R,0.0669X0.0492*%
%ADD32C,0.0080*%
%ADD33C,0.0200*%
%ADD34C,0.0300*%
%ADD35C,0.0050*%
%ADD36C,0.0039*%
%ADD37C,0.0600*%
%ADD38O,0.1000X0.0700*%
%ADD39R,0.4000X0.4300*%
%ADD40O,0.0700X0.1000*%
%ADD41R,0.0700X0.1000*%
%ADD42O,0.0700X0.1000*%
%ADD43R,0.0700X0.1000*%
%ADD44R,0.0700X0.1300*%
%ADD45O,0.0700X0.1300*%
%ADD46C,0.0800*%
%ADD47O,0.1300X0.0700*%
%ADD48R,0.1300X0.0700*%
%ADD49R,0.0394X0.0394*%
%ADD50C,0.0394*%
%ADD51C,0.0500*%
%ADD52C,0.0260*%
G36*
X-21160Y23459D02*
X-20663D01*
Y22521D01*
X-20697Y22521D01*
D01*
X-20829D01*
Y22521D01*
X-21603D01*
Y21176D01*
X-21532D01*
X-21521Y21149D01*
X-21465Y21076D01*
X-21312Y20923D01*
Y20667D01*
X-21476Y20503D01*
X-21480Y20499D01*
X-21781D01*
Y18681D01*
X-21781D01*
X-21623Y18537D01*
Y18537D01*
D01*
X-21668Y18427D01*
X-21684Y18310D01*
X-21668Y18193D01*
X-21623Y18083D01*
X-21551Y17989D01*
X-21457Y17917D01*
X-21347Y17872D01*
X-21230Y17856D01*
X-21113Y17872D01*
X-21003Y17917D01*
X-20909Y17989D01*
X-20837Y18083D01*
X-20792Y18193D01*
X-20776Y18310D01*
X-20792Y18427D01*
X-20837Y18537D01*
X-20874Y18585D01*
Y18681D01*
X-20672D01*
Y20308D01*
X-20650Y20330D01*
X-20602Y20393D01*
X-20128D01*
Y18681D01*
X-19019D01*
Y19710D01*
X-18795Y19821D01*
X-18787Y19814D01*
X-18701Y19779D01*
X-18610Y19767D01*
X-17453D01*
Y18060D01*
X-17441Y17969D01*
X-17406Y17883D01*
X-17350Y17810D01*
X-14213Y14674D01*
Y9020D01*
X-14201Y8929D01*
X-14166Y8843D01*
X-14110Y8770D01*
X-13550Y8210D01*
X-13477Y8154D01*
X-13391Y8119D01*
X-13300Y8107D01*
X-13300Y8107D01*
X-13111D01*
X-13080Y8033D01*
X-12992Y7918D01*
X-12877Y7830D01*
X-12744Y7774D01*
X-12600Y7755D01*
X-12456Y7774D01*
X-12323Y7830D01*
X-12208Y7918D01*
X-12190Y7941D01*
X-11953Y7861D01*
Y7100D01*
X-16367D01*
Y7690D01*
X-16270D01*
Y7690D01*
X-15170D01*
Y9090D01*
X-15437D01*
Y12470D01*
X-15449Y12561D01*
X-15484Y12647D01*
X-15540Y12720D01*
X-16060Y13240D01*
X-16133Y13296D01*
X-16219Y13331D01*
X-16310Y13343D01*
X-17428D01*
X-17458Y13382D01*
X-17573Y13470D01*
X-17706Y13526D01*
X-17850Y13545D01*
X-18150D01*
X-18294Y13526D01*
X-18427Y13470D01*
X-18500Y13415D01*
X-18573Y13470D01*
X-18706Y13526D01*
X-18850Y13545D01*
X-19150D01*
X-19151Y13545D01*
X-19304Y13662D01*
X-19360Y13735D01*
X-19314Y13846D01*
X-19295Y13990D01*
X-19314Y14134D01*
X-19370Y14267D01*
X-19458Y14382D01*
X-19573Y14470D01*
X-19706Y14526D01*
X-19850Y14545D01*
X-20150D01*
X-20294Y14526D01*
X-20427Y14470D01*
X-20542Y14382D01*
X-20630Y14267D01*
X-20686Y14134D01*
X-20705Y13990D01*
X-20686Y13846D01*
X-20630Y13713D01*
X-20542Y13598D01*
X-20427Y13510D01*
X-20294Y13454D01*
X-20150Y13435D01*
X-19850D01*
X-19849Y13435D01*
X-19696Y13318D01*
X-19640Y13245D01*
X-19686Y13134D01*
X-19705Y12990D01*
X-19686Y12846D01*
X-19640Y12735D01*
X-19696Y12662D01*
X-19849Y12545D01*
X-19850Y12545D01*
X-20150D01*
X-20294Y12526D01*
X-20427Y12470D01*
X-20542Y12382D01*
X-20630Y12267D01*
X-20686Y12134D01*
X-20705Y11990D01*
X-20686Y11846D01*
X-20630Y11713D01*
X-20542Y11598D01*
X-20427Y11510D01*
X-20294Y11454D01*
X-20150Y11435D01*
X-19905D01*
X-18810Y10340D01*
X-18737Y10284D01*
X-18737D01*
X-18651Y10249D01*
D01*
X-18602Y10155D01*
X-18660Y10040D01*
X-18660D01*
Y9140D01*
X-18272D01*
X-18170Y9008D01*
X-18125Y8916D01*
X-18200Y8817D01*
X-18256Y8684D01*
X-18259Y8663D01*
X-18560D01*
X-18651Y8651D01*
X-18737Y8616D01*
X-18810Y8560D01*
X-19026Y8343D01*
X-20408D01*
Y8387D01*
X-21395D01*
Y7990D01*
Y7593D01*
X-21073D01*
Y7325D01*
X-21255D01*
Y7325D01*
X-21651D01*
Y6790D01*
Y6255D01*
X-21255D01*
Y6255D01*
X-21250D01*
X-21073Y6079D01*
Y5440D01*
X-21061Y5349D01*
X-21026Y5263D01*
X-20970Y5190D01*
X-20703Y4924D01*
Y2840D01*
X-20950Y2840D01*
Y2840D01*
X-20950D01*
X-20958Y2818D01*
X-21123Y2770D01*
X-21256Y2826D01*
X-21350Y2838D01*
Y1990D01*
X-21400D01*
Y1940D01*
X-21955D01*
Y1690D01*
X-21936Y1546D01*
X-21932Y1537D01*
X-22039Y1311D01*
X-22051Y1307D01*
X-22155Y1251D01*
X-22246Y1176D01*
X-22321Y1085D01*
X-22377Y981D01*
X-22411Y868D01*
X-22423Y750D01*
X-22411Y632D01*
X-22377Y519D01*
X-22321Y415D01*
X-22246Y324D01*
X-22155Y249D01*
X-22051Y193D01*
X-21938Y159D01*
X-21820Y147D01*
X-21702Y159D01*
X-21589Y193D01*
X-21485Y249D01*
X-21394Y324D01*
X-21319Y415D01*
X-21263Y519D01*
X-21229Y632D01*
X-21217Y750D01*
X-21229Y868D01*
X-21263Y981D01*
X-21319Y1085D01*
X-21293Y1149D01*
X-21256Y1154D01*
X-21123Y1210D01*
X-20958Y1162D01*
X-20950Y1140D01*
Y1140D01*
X-20020D01*
Y-1710D01*
X-5902D01*
X-5844Y-1748D01*
X-5766Y-1764D01*
X-5260D01*
X-5257Y-1763D01*
X-5150Y-1870D01*
X-2120Y1160D01*
X-807D01*
X-711Y929D01*
X-1050Y590D01*
Y-410D01*
X-500Y-910D01*
X-194D01*
X-163Y-917D01*
X0Y-930D01*
X163Y-917D01*
X194Y-910D01*
X550D01*
X1050Y-410D01*
Y640D01*
X761Y929D01*
X857Y1160D01*
X1240D01*
X1370Y1030D01*
Y-1944D01*
X1135Y-2028D01*
X1106Y-1994D01*
X981Y-1891D01*
X837Y-1814D01*
X682Y-1767D01*
X520Y-1751D01*
X358Y-1767D01*
X203Y-1814D01*
X59Y-1891D01*
X-66Y-1994D01*
X-169Y-2119D01*
X-246Y-2263D01*
X-293Y-2418D01*
X-309Y-2580D01*
X-293Y-2742D01*
X-246Y-2897D01*
X-169Y-3041D01*
X-66Y-3166D01*
X-56Y-3175D01*
X-140Y-3410D01*
X-21098D01*
X-21237Y-3242D01*
X-21264Y-3184D01*
X-21171Y-3071D01*
X-21094Y-2927D01*
X-21047Y-2772D01*
X-21031Y-2610D01*
X-21047Y-2448D01*
X-21094Y-2293D01*
X-21171Y-2149D01*
X-21274Y-2024D01*
X-21399Y-1921D01*
X-21543Y-1844D01*
X-21698Y-1797D01*
X-21860Y-1781D01*
X-22022Y-1797D01*
X-22177Y-1844D01*
X-22321Y-1921D01*
X-22446Y-2024D01*
X-22485Y-2071D01*
X-22720Y-1986D01*
Y23655D01*
X-22615D01*
Y23655D01*
X-21785D01*
Y23829D01*
X-21160D01*
Y23459D01*
D02*
G37*
G36*
X-14959Y25161D02*
X-14872Y24948D01*
X-16150D01*
Y23390D01*
Y21832D01*
X-14661D01*
Y22459D01*
X-14655Y22474D01*
X-14410Y22425D01*
Y21400D01*
X-14497Y21388D01*
X-14607Y21343D01*
X-14659Y21303D01*
X-14915D01*
Y21523D01*
X-15689D01*
Y20587D01*
X-16075D01*
Y20190D01*
X-16175D01*
Y20587D01*
X-16512D01*
Y20587D01*
X-16534D01*
X-16711Y20764D01*
Y21523D01*
X-17485D01*
Y20473D01*
X-18464D01*
X-19051Y21061D01*
Y21176D01*
X-19017D01*
Y22521D01*
X-19791D01*
D01*
D01*
X-19791Y22521D01*
X-19923D01*
D01*
X-19957Y22521D01*
Y23459D01*
X-19460D01*
Y24804D01*
X-19835D01*
X-19931Y25035D01*
X-19780Y25185D01*
X-14959Y25161D01*
D02*
G37*
G36*
X-2614Y21356D02*
X-2614Y21356D01*
X-2578Y21329D01*
X-2551Y21308D01*
X-2478Y21278D01*
X-2400Y21267D01*
X-1405D01*
X-908Y20770D01*
X-940Y20675D01*
X-1170Y20577D01*
X-1279Y20629D01*
X-1283Y20641D01*
X-1339Y20745D01*
X-1414Y20836D01*
X-1505Y20911D01*
X-1609Y20967D01*
X-1722Y21001D01*
X-1840Y21013D01*
X-1958Y21001D01*
X-2071Y20967D01*
X-2175Y20911D01*
X-2266Y20836D01*
X-2341Y20745D01*
X-2397Y20641D01*
X-2431Y20528D01*
X-2443Y20410D01*
X-2432Y20298D01*
X-2570Y20146D01*
X-2803Y20236D01*
Y20328D01*
Y20665D01*
X-3597D01*
Y20328D01*
Y19678D01*
X-3597D01*
Y19494D01*
X-3750D01*
Y19494D01*
X-5450D01*
Y19368D01*
X-5695Y19320D01*
X-5708Y19351D01*
X-5756Y19414D01*
X-5885Y19543D01*
X-5873Y19582D01*
X-5763Y19627D01*
X-5669Y19699D01*
X-5597Y19793D01*
X-5552Y19903D01*
X-5536Y20020D01*
X-5552Y20137D01*
X-5597Y20247D01*
X-5669Y20341D01*
X-5763Y20413D01*
X-5873Y20458D01*
X-5920Y20465D01*
X-5942Y20503D01*
X-5933Y20570D01*
X-6380D01*
Y20620D01*
X-6430D01*
Y21067D01*
X-6380Y21074D01*
X-6380D01*
Y21141D01*
X-6203Y21317D01*
X-5820D01*
X-5742Y21328D01*
X-5690Y21349D01*
X-5669Y21358D01*
X-5450Y21072D01*
Y20886D01*
X-4650D01*
Y21558D01*
X-4600D01*
Y21608D01*
X-3750D01*
Y22166D01*
X-3519Y22262D01*
X-2614Y21356D01*
D02*
G37*
G36*
X-9308Y25892D02*
X-9033Y25617D01*
X-8954Y25564D01*
X-8938Y25561D01*
X-8860Y25545D01*
X-7912D01*
Y25393D01*
X-7847D01*
X-7758Y25325D01*
X-7664Y25185D01*
X-7688Y25127D01*
X-7697Y25060D01*
X-7250D01*
Y25010D01*
X-7200D01*
Y24563D01*
X-7133Y24572D01*
X-7023Y24617D01*
X-6815Y24346D01*
Y23865D01*
X-6815D01*
X-6741Y23791D01*
X-6813Y23697D01*
X-6858Y23587D01*
X-6874Y23470D01*
X-6858Y23353D01*
X-6813Y23243D01*
X-6741Y23149D01*
X-6647Y23077D01*
X-6537Y23032D01*
X-6420Y23016D01*
X-6303Y23032D01*
X-6193Y23077D01*
X-6099Y23149D01*
X-6027Y23243D01*
X-5982Y23353D01*
X-5966Y23470D01*
X-5982Y23587D01*
X-6027Y23697D01*
X-6097Y23789D01*
Y23865D01*
X-5985D01*
Y24065D01*
X-5815D01*
Y24065D01*
X-5703Y24065D01*
Y22676D01*
X-5728Y22643D01*
X-5910Y22521D01*
X-5953Y22538D01*
X-6070Y22554D01*
X-6187Y22538D01*
X-6297Y22493D01*
X-6389Y22423D01*
X-6615D01*
Y22440D01*
X-7885D01*
Y22440D01*
X-7893D01*
X-8069Y22617D01*
Y22793D01*
X-7725D01*
Y23190D01*
X-7675D01*
Y23240D01*
X-7288D01*
Y23587D01*
X-7318D01*
Y23793D01*
X-7318D01*
Y24140D01*
X-7705D01*
Y24240D01*
X-7318D01*
Y24496D01*
X-7250Y24556D01*
X-7300Y24563D01*
Y24960D01*
X-7697D01*
X-7688Y24893D01*
X-7648Y24795D01*
X-7669Y24763D01*
X-7899Y24587D01*
X-8742D01*
Y24587D01*
X-8847D01*
X-8865Y24605D01*
Y24605D01*
X-9695D01*
Y25755D01*
X-9558Y25892D01*
X-9308D01*
D02*
G37*
G36*
X-5235Y30569D02*
Y28894D01*
X-5529Y28835D01*
X-5567Y28927D01*
X-5639Y29021D01*
X-5733Y29093D01*
X-5843Y29138D01*
X-5910Y29147D01*
Y28700D01*
X-6010D01*
Y29147D01*
X-6077Y29138D01*
X-6187Y29093D01*
D01*
X-6187D01*
X-6288Y29187D01*
Y29187D01*
X-6625D01*
Y28790D01*
X-6725D01*
Y29187D01*
X-6776D01*
X-6971Y29336D01*
X-7038Y29436D01*
X-7013Y29496D01*
X-7000Y29599D01*
X-7013Y29703D01*
X-7032Y29749D01*
X-7003Y29793D01*
X-7003D01*
Y30587D01*
D01*
Y30587D01*
X-6997Y30593D01*
X-6725D01*
Y30990D01*
X-6675D01*
Y31040D01*
X-6288D01*
Y31230D01*
X-6011Y31345D01*
X-5235Y30569D01*
D02*
G37*
G36*
X-15597Y29302D02*
X-15597D01*
Y28528D01*
Y28315D01*
X-15200D01*
Y28215D01*
X-15597D01*
Y28017D01*
X-15665D01*
D01*
D01*
X-15665D01*
Y28017D01*
X-16150D01*
Y27571D01*
X-16200D01*
Y27521D01*
X-16735D01*
Y27125D01*
X-16735Y27125D01*
X-16735Y26855D01*
D01*
X-16735Y26743D01*
X-19550D01*
X-19550Y26940D01*
X-19550D01*
Y26940D01*
X-19708Y26998D01*
X-19708Y26998D01*
X-19620Y27113D01*
X-19564Y27246D01*
X-19552Y27340D01*
X-21248D01*
X-21236Y27246D01*
X-21180Y27113D01*
X-21092Y26998D01*
Y26998D01*
X-21250Y26940D01*
X-21250D01*
Y25840D01*
X-20663D01*
Y25280D01*
X-21897D01*
Y28005D01*
X-21815Y28087D01*
X-21161D01*
X-21067Y27810D01*
X-21092Y27782D01*
X-21092Y27782D01*
X-21092D01*
X-21180Y27667D01*
X-21236Y27534D01*
X-21248Y27440D01*
X-19552D01*
X-19564Y27534D01*
X-19620Y27667D01*
X-19708Y27782D01*
X-19823Y27870D01*
Y27910D01*
X-19708Y27998D01*
X-19639Y28087D01*
X-18797D01*
Y27928D01*
Y27715D01*
X-18003D01*
Y27928D01*
Y28702D01*
X-18797D01*
Y28693D01*
X-19639D01*
X-19735Y28977D01*
X-19708Y28998D01*
X-19625Y29105D01*
X-18720D01*
X-18642Y29121D01*
X-18626Y29124D01*
X-18547Y29177D01*
X-18264Y29460D01*
X-15597D01*
Y29302D01*
D02*
G37*
G36*
X-12350Y26278D02*
X-12240D01*
X-12154Y26180D01*
X-12147Y26230D01*
X-11700D01*
Y26180D01*
X-11650D01*
Y25733D01*
X-11699Y25726D01*
X-11580Y25740D01*
Y25334D01*
X-13527D01*
X-13605Y25318D01*
X-13662Y25280D01*
X-14798D01*
X-14815Y25305D01*
X-14815Y25305D01*
X-14815Y25305D01*
X-14848Y25327D01*
X-14880Y25349D01*
X-14881Y25350D01*
X-14881Y25350D01*
X-14920Y25358D01*
X-14958Y25365D01*
X-14959Y25365D01*
X-14959Y25365D01*
X-14959D01*
X-19779Y25389D01*
D01*
X-19779Y25389D01*
D01*
X-19957Y25526D01*
Y25840D01*
X-19550D01*
Y26037D01*
X-16735D01*
Y25963D01*
X-15665D01*
Y26056D01*
X-14701D01*
X-14609Y26068D01*
X-14609Y26068D01*
X-14609Y26068D01*
X-14438Y26063D01*
Y26063D01*
X-14438Y26063D01*
X-14393Y25953D01*
X-14321Y25859D01*
X-14227Y25787D01*
X-14117Y25742D01*
X-14050Y25733D01*
Y26180D01*
X-14000D01*
Y26230D01*
X-13553D01*
X-13546Y26180D01*
X-13460Y26278D01*
X-13250D01*
Y26665D01*
X-13150D01*
Y26278D01*
X-12803D01*
Y26278D01*
X-12803D01*
X-12803Y26278D01*
X-12797D01*
Y26278D01*
X-12450D01*
Y26665D01*
X-12350D01*
Y26278D01*
D02*
G37*
G36*
X-14573Y18855D02*
X-14524D01*
X-14397Y18728D01*
Y18515D01*
X-14000D01*
Y18465D01*
X-13950D01*
Y18078D01*
X-13603D01*
Y18078D01*
X-13603D01*
X-13603Y18078D01*
X-13597D01*
Y18078D01*
X-13250D01*
Y18465D01*
X-13200D01*
Y18515D01*
X-12803D01*
Y18728D01*
Y18762D01*
X-12451D01*
X-12050Y18361D01*
Y14610D01*
X-11856D01*
X-11828Y14592D01*
X-11750Y14576D01*
X-11691D01*
X-11650Y14522D01*
X-11566Y14352D01*
X-11630Y14267D01*
X-11686Y14134D01*
X-11705Y13990D01*
X-11686Y13846D01*
X-11630Y13713D01*
X-11542Y13598D01*
X-11536Y13593D01*
X-11516Y13445D01*
X-11533Y13318D01*
X-11587Y13296D01*
X-11660Y13240D01*
X-12974Y11925D01*
X-13031Y11852D01*
X-13066Y11767D01*
X-13078Y11675D01*
Y11057D01*
X-13112D01*
Y10868D01*
X-13136Y10837D01*
X-13171Y10751D01*
X-13183Y10660D01*
Y10110D01*
X-13340Y10110D01*
D01*
X-13507Y10277D01*
Y14820D01*
X-13519Y14911D01*
X-13554Y14997D01*
X-13610Y15070D01*
X-16747Y18206D01*
Y18855D01*
X-16627D01*
Y18855D01*
X-16297D01*
X-16187Y18631D01*
X-16213Y18597D01*
X-16258Y18487D01*
X-16267Y18420D01*
X-15373D01*
X-15382Y18487D01*
X-15427Y18597D01*
X-15453Y18631D01*
X-15343Y18855D01*
X-14573D01*
Y18855D01*
D02*
G37*
G36*
X1262Y9677D02*
X1309Y1597D01*
X1133Y1420D01*
X-2310D01*
Y1390D01*
X-5260Y-1560D01*
X-5766D01*
X-5841Y-1380D01*
X-5860Y-1323D01*
X-5790Y-1270D01*
X-4950Y-430D01*
X-4894Y-357D01*
X-4859Y-271D01*
X-4847Y-180D01*
Y311D01*
X-4616Y389D01*
X-4592Y368D01*
X-4592Y368D01*
Y368D01*
X-4477Y280D01*
X-4344Y224D01*
X-4200Y205D01*
X-4056Y224D01*
X-3923Y280D01*
X-3808Y368D01*
X-3720Y483D01*
X-3668Y607D01*
X-3640D01*
X-3549Y619D01*
X-3463Y654D01*
X-3390Y710D01*
X-2850Y1250D01*
X-2794Y1323D01*
X-2759Y1409D01*
X-2747Y1500D01*
Y9557D01*
X670D01*
X761Y9569D01*
X847Y9604D01*
X920Y9660D01*
X1031Y9772D01*
X1262Y9677D01*
D02*
G37*
G36*
X-14290Y6620D02*
Y-1330D01*
X-18970D01*
Y40D01*
X-18970D01*
X-18920D01*
X-18899Y40D01*
X-18899Y40D01*
Y40D01*
X-16770D01*
Y1390D01*
Y4740D01*
X-18899D01*
Y4740D01*
X-18899Y4740D01*
X-18920Y4740D01*
X-18970Y4790D01*
Y6559D01*
X-18899Y6630D01*
X-14290Y6620D01*
D02*
G37*
G36*
X-9200Y6440D02*
X-9170Y6410D01*
Y-667D01*
X-13903D01*
X-13920Y-650D01*
Y6389D01*
X-13849Y6460D01*
X-9200Y6440D01*
D02*
G37*
G36*
X-6480Y9660D02*
X-6407Y9604D01*
X-6321Y9569D01*
X-6230Y9557D01*
X-3453D01*
Y3080D01*
X-8220D01*
Y9670D01*
X-6489D01*
X-6480Y9660D01*
D02*
G37*
G36*
X-11580Y20135D02*
X-11564Y20057D01*
X-11561Y20041D01*
X-11508Y19962D01*
X-10983Y19437D01*
X-10983Y19437D01*
X-10493Y18947D01*
X-10414Y18894D01*
X-10320Y18875D01*
X-9915D01*
Y18800D01*
X-8645D01*
Y19300D01*
Y19800D01*
Y20300D01*
Y20800D01*
Y21130D01*
X-8414Y21226D01*
X-8094Y20906D01*
X-8094Y20906D01*
X-8031Y20858D01*
X-7958Y20828D01*
X-7885Y20818D01*
Y20800D01*
Y20670D01*
X-7250D01*
Y20570D01*
X-7885D01*
Y20300D01*
Y19800D01*
Y19300D01*
Y18800D01*
X-6615D01*
Y18817D01*
X-6273D01*
Y18382D01*
X-6449Y18205D01*
X-6475D01*
Y18205D01*
X-7935D01*
Y17375D01*
X-7843D01*
Y16941D01*
X-7946D01*
Y16187D01*
Y15866D01*
X-7113D01*
Y15813D01*
X-7017D01*
Y15813D01*
X-6183D01*
Y15837D01*
X-5046D01*
X-4413Y15204D01*
Y14352D01*
X-4797D01*
D01*
D01*
X-4797Y14352D01*
X-4803D01*
Y14352D01*
X-5274D01*
X-5413Y14560D01*
X-5412Y14563D01*
X-5396Y14680D01*
X-5412Y14797D01*
X-5457Y14907D01*
X-5529Y15001D01*
X-5623Y15073D01*
X-5733Y15118D01*
X-5850Y15134D01*
X-5917Y15125D01*
X-6066Y15274D01*
X-6129Y15322D01*
X-6150Y15331D01*
X-6202Y15352D01*
X-6280Y15363D01*
X-7113D01*
Y15439D01*
X-7113D01*
Y15766D01*
X-7946D01*
Y15439D01*
D01*
Y15439D01*
X-8022Y15363D01*
X-10185D01*
Y15675D01*
Y16465D01*
X-10185D01*
Y16669D01*
X-10066Y16719D01*
X-9994Y16646D01*
X-9931Y16598D01*
X-9858Y16568D01*
X-9858Y16568D01*
X-9858Y16568D01*
D01*
X-9858Y16568D01*
X-9858Y16568D01*
X-9780Y16557D01*
X-9140D01*
X-9062Y16568D01*
X-9010Y16589D01*
X-8989Y16598D01*
X-8926Y16646D01*
X-8786Y16786D01*
X-8738Y16849D01*
X-8729Y16870D01*
X-8726Y16878D01*
X-8603D01*
Y17528D01*
Y17865D01*
X-9000D01*
Y17915D01*
X-9050D01*
Y18302D01*
X-9397D01*
Y18302D01*
X-9408D01*
X-9585Y18479D01*
Y18525D01*
X-9950D01*
Y18130D01*
X-10050D01*
Y18525D01*
X-10415D01*
Y18399D01*
X-10553Y18067D01*
X-10603Y18022D01*
X-10690Y18034D01*
X-10807Y18018D01*
X-10917Y17973D01*
X-11011Y17901D01*
X-11083Y17807D01*
X-11128Y17697D01*
X-11144Y17580D01*
X-11128Y17463D01*
X-11083Y17353D01*
X-11011Y17259D01*
X-10917Y17187D01*
X-10903Y17181D01*
Y16465D01*
X-11015D01*
Y15675D01*
Y15005D01*
X-11015D01*
Y14931D01*
X-11379Y14780D01*
X-11750D01*
Y18370D01*
X-11790Y18410D01*
X-12495Y19115D01*
X-12803D01*
Y19065D01*
X-13200D01*
Y19115D01*
X-13250D01*
Y19502D01*
X-13597D01*
D01*
D01*
X-13597Y19502D01*
X-13603D01*
D01*
X-13647Y19502D01*
Y19864D01*
X-13630Y19880D01*
X-13574Y19953D01*
X-13539Y20039D01*
X-13527Y20130D01*
Y25130D01*
X-11580D01*
Y20135D01*
D02*
G37*
G36*
X-1450Y18440D02*
X-953D01*
Y17736D01*
X-1290Y17400D01*
X-1346Y17327D01*
X-1381Y17241D01*
X-1393Y17150D01*
Y16360D01*
X-1890D01*
Y16017D01*
X-2403D01*
Y16102D01*
X-3197D01*
Y15328D01*
Y15115D01*
X-2403D01*
Y15328D01*
Y15412D01*
X-1890D01*
X-1890Y15260D01*
X-1890D01*
Y15260D01*
X-1868Y15252D01*
X-1820Y15087D01*
X-1876Y14954D01*
X-1888Y14860D01*
X-1040D01*
Y14810D01*
X-990D01*
Y14255D01*
X-740D01*
X-596Y14274D01*
X-587Y14278D01*
X-361Y14171D01*
X-357Y14159D01*
X-301Y14055D01*
X-226Y13964D01*
X-135Y13889D01*
X-31Y13833D01*
X82Y13799D01*
X200Y13787D01*
X318Y13799D01*
X431Y13833D01*
X535Y13889D01*
X626Y13964D01*
X682Y14031D01*
X877Y13961D01*
X917Y13940D01*
Y10656D01*
X524Y10263D01*
X-6084D01*
X-6447Y10626D01*
Y10961D01*
X-6216Y11039D01*
X-6192Y11018D01*
X-6192Y11018D01*
Y11018D01*
X-6077Y10930D01*
X-5944Y10874D01*
X-5800Y10855D01*
X-5656Y10874D01*
X-5523Y10930D01*
X-5358Y10882D01*
X-5350Y10860D01*
Y10860D01*
X-4250D01*
Y12260D01*
X-4437D01*
Y12928D01*
X-4003D01*
Y12928D01*
X-4003D01*
X-4003Y12928D01*
X-3997D01*
Y12928D01*
X-3203D01*
Y13578D01*
Y14352D01*
X-3707D01*
Y15350D01*
X-3719Y15441D01*
X-3754Y15527D01*
X-3810Y15600D01*
X-4650Y16440D01*
X-4723Y16496D01*
X-4809Y16531D01*
X-4900Y16543D01*
X-6183D01*
Y16567D01*
X-7017D01*
D01*
X-7017D01*
X-7113Y16663D01*
Y16941D01*
X-7237D01*
Y17375D01*
X-6475D01*
Y17517D01*
X-6270D01*
X-6192Y17528D01*
X-6140Y17549D01*
X-6119Y17558D01*
X-6056Y17606D01*
X-5756Y17906D01*
X-5708Y17969D01*
X-5699Y17990D01*
X-5678Y18042D01*
X-5667Y18120D01*
Y18149D01*
X-5450D01*
Y18149D01*
X-4953D01*
Y17579D01*
X-4993Y17527D01*
X-5038Y17417D01*
X-5054Y17300D01*
X-5038Y17183D01*
X-4993Y17073D01*
X-4921Y16979D01*
X-4827Y16907D01*
X-4717Y16862D01*
X-4600Y16846D01*
X-4483Y16862D01*
X-4373Y16907D01*
X-4279Y16979D01*
X-4207Y17073D01*
X-4162Y17183D01*
X-4146Y17300D01*
X-4162Y17417D01*
X-4207Y17527D01*
X-4247Y17579D01*
Y18149D01*
X-3750D01*
Y18469D01*
X-3578D01*
X-3487Y18481D01*
X-3402Y18516D01*
X-3328Y18572D01*
X-2950Y18950D01*
X-2894Y19023D01*
X-2859Y19109D01*
X-2847Y19200D01*
Y19407D01*
X-1450D01*
Y18440D01*
D02*
G37*
G36*
X-6300Y14652D02*
X-6288Y14563D01*
X-6243Y14453D01*
X-6171Y14359D01*
X-6077Y14287D01*
X-5967Y14242D01*
X-5850Y14226D01*
X-5785Y14235D01*
X-5698Y14159D01*
X-5597Y13914D01*
Y13702D01*
Y13683D01*
X-6385D01*
Y13725D01*
X-7215D01*
Y12935D01*
Y12265D01*
X-7215D01*
X-7153Y12132D01*
X-7192Y12102D01*
X-7280Y11987D01*
X-7336Y11854D01*
X-7353Y11721D01*
X-7584Y11626D01*
X-7633Y11663D01*
X-7743Y11708D01*
X-7810Y11717D01*
Y11270D01*
Y10823D01*
X-7743Y10832D01*
X-7633Y10877D01*
X-7539Y10949D01*
X-7467Y11043D01*
X-7365Y11092D01*
X-7153Y10959D01*
Y10480D01*
X-7141Y10389D01*
X-7106Y10303D01*
X-7050Y10230D01*
X-7000Y10181D01*
X-7096Y9950D01*
X-8200D01*
Y10699D01*
X-7992Y10838D01*
X-7977Y10832D01*
X-7910Y10823D01*
Y11270D01*
Y11717D01*
X-7977Y11708D01*
X-7992Y11702D01*
X-8200Y11841D01*
Y14740D01*
X-8200Y14740D01*
X-8200Y14740D01*
X-8193Y14757D01*
X-6405D01*
X-6300Y14652D01*
D02*
G37*
G36*
X-15629Y35872D02*
X-15626Y35856D01*
X-15573Y35777D01*
X-15303Y35507D01*
X-15224Y35454D01*
X-15150Y35439D01*
X-15164Y35330D01*
X-15148Y35213D01*
X-15103Y35103D01*
X-15031Y35009D01*
X-15031Y35009D01*
X-15031D01*
X-14935Y34901D01*
X-15023Y34813D01*
X-15076Y34734D01*
X-15079Y34718D01*
X-15095Y34640D01*
Y32182D01*
X-15389Y32124D01*
X-15407Y32167D01*
X-15479Y32261D01*
X-15573Y32333D01*
X-15683Y32378D01*
X-15750Y32387D01*
Y31940D01*
X-15800D01*
Y31890D01*
X-16247D01*
X-16238Y31823D01*
X-16218Y31774D01*
X-16328Y31609D01*
X-16439Y31524D01*
X-17385D01*
Y31535D01*
Y32325D01*
X-17497D01*
Y32680D01*
X-17508Y32758D01*
X-17485Y32872D01*
X-17383Y32950D01*
X-17400Y32953D01*
Y33400D01*
Y33847D01*
X-17467Y33838D01*
X-17577Y33793D01*
X-17845Y34143D01*
Y34773D01*
X-17450D01*
Y35190D01*
X-17350D01*
Y34773D01*
X-17023D01*
Y34981D01*
X-16750Y35190D01*
X-16656Y35118D01*
X-16547Y35072D01*
X-16429Y35057D01*
X-16312Y35072D01*
X-16202Y35118D01*
X-16108Y35190D01*
X-16036Y35284D01*
X-15991Y35393D01*
X-15975Y35511D01*
X-15991Y35628D01*
X-16036Y35738D01*
X-15797Y35878D01*
D01*
D01*
X-15797Y35878D01*
X-15630D01*
X-15629Y35872D01*
D02*
G37*
G36*
X-4103Y38913D02*
Y37525D01*
X-4215D01*
Y36735D01*
Y36065D01*
X-3385D01*
Y36087D01*
X-2550D01*
Y35540D01*
X-1450D01*
Y35540D01*
X-1442Y35562D01*
X-1277Y35610D01*
X-1144Y35554D01*
X-1000Y35535D01*
X-856Y35554D01*
X-723Y35610D01*
X-608Y35698D01*
X-520Y35813D01*
X-464Y35946D01*
X-445Y36090D01*
Y36690D01*
X-464Y36834D01*
X-520Y36967D01*
X-490Y37036D01*
X-462Y37039D01*
X-349Y37073D01*
X-245Y37129D01*
X-154Y37204D01*
X-79Y37295D01*
D01*
D01*
D01*
X597Y36934D01*
X630Y36901D01*
X642Y36813D01*
X687Y36703D01*
X759Y36609D01*
X853Y36537D01*
X963Y36492D01*
X1080Y36476D01*
X1197Y36492D01*
X1241Y36509D01*
X1420Y36389D01*
X1490Y36298D01*
Y27280D01*
X-3032D01*
X-3268Y27516D01*
X-3153Y27793D01*
X-2688D01*
Y27935D01*
X-1450D01*
Y27640D01*
X250D01*
Y27935D01*
X380D01*
X478Y27954D01*
X560Y28010D01*
X680Y28130D01*
X735Y28212D01*
X755Y28310D01*
Y33393D01*
X912D01*
Y34187D01*
X-75D01*
Y33790D01*
Y33393D01*
X245D01*
Y33019D01*
X-23Y32670D01*
X-156Y32726D01*
X-300Y32745D01*
X-550D01*
Y32190D01*
X-650D01*
Y32745D01*
X-900D01*
X-1044Y32726D01*
X-1044Y32726D01*
X-1044Y32726D01*
X-1249Y32728D01*
D01*
X-1283Y32841D01*
X-1339Y32945D01*
X-1414Y33036D01*
X-1505Y33111D01*
X-1609Y33167D01*
X-1722Y33201D01*
X-1840Y33213D01*
X-1958Y33201D01*
X-2071Y33167D01*
X-2146Y33127D01*
X-2403Y33281D01*
Y33328D01*
Y33665D01*
X-2800D01*
Y33715D01*
X-2850D01*
Y34102D01*
X-3197D01*
D01*
D01*
X-3197Y34102D01*
X-3203D01*
Y34102D01*
X-3550D01*
Y33715D01*
X-3650D01*
Y34102D01*
X-3997D01*
D01*
D01*
X-3997Y34102D01*
X-4003D01*
Y34102D01*
X-4350D01*
Y33715D01*
X-4400D01*
Y33665D01*
X-4797D01*
Y33328D01*
Y32678D01*
X-4797Y32678D01*
X-4797D01*
X-4776Y32636D01*
X-4783Y32627D01*
X-4828Y32517D01*
X-4844Y32400D01*
X-4828Y32283D01*
X-4783Y32173D01*
X-4711Y32079D01*
X-4617Y32007D01*
X-4507Y31962D01*
X-4390Y31946D01*
X-4273Y31962D01*
X-4163Y32007D01*
X-4069Y32079D01*
X-3983Y32113D01*
Y32113D01*
X-3983Y32113D01*
X-3911Y32019D01*
X-3817Y31947D01*
X-3707Y31902D01*
X-3591Y31886D01*
X-3610Y31587D01*
X-4112D01*
Y31435D01*
X-4815D01*
X-5613Y32233D01*
X-5692Y32286D01*
X-5708Y32289D01*
X-5786Y32305D01*
X-5791Y32331D01*
X-5723Y32360D01*
X-5608Y32448D01*
X-5520Y32563D01*
X-5464Y32696D01*
X-5445Y32840D01*
Y32940D01*
X-6000D01*
Y32990D01*
X-6050D01*
Y33688D01*
X-6144Y33676D01*
X-6208Y33649D01*
X-6430Y33819D01*
X-6445Y33839D01*
X-6445Y33840D01*
Y34140D01*
X-6464Y34284D01*
X-6520Y34417D01*
X-6575Y34490D01*
X-6520Y34563D01*
X-6464Y34696D01*
X-6445Y34840D01*
Y35140D01*
X-6464Y35284D01*
X-6520Y35417D01*
X-6608Y35532D01*
X-6723Y35620D01*
X-6856Y35676D01*
X-7000Y35695D01*
X-6902Y35793D01*
X-6525D01*
Y36190D01*
X-6475D01*
Y36240D01*
X-6088D01*
Y36587D01*
D01*
Y36587D01*
X-6088Y36587D01*
Y36593D01*
X-6088D01*
Y36940D01*
X-6475D01*
Y36990D01*
X-6525D01*
Y37387D01*
X-7067D01*
Y38540D01*
X-6950D01*
Y38540D01*
X-6450D01*
Y39390D01*
X-6400D01*
Y39440D01*
X-5850D01*
Y40007D01*
X-5196D01*
X-4103Y38913D01*
D02*
G37*
G36*
X-8799Y38703D02*
X-8792Y38698D01*
X-8792Y38698D01*
Y38698D01*
X-8792Y38698D01*
X-8792Y38698D01*
X-8677Y38610D01*
X-8544Y38554D01*
X-8400Y38535D01*
X-8256Y38554D01*
X-8123Y38610D01*
X-8042Y38671D01*
X-7850Y38577D01*
X-7773Y38518D01*
Y36190D01*
Y36096D01*
X-8250Y35620D01*
X-8306Y35547D01*
X-8341Y35461D01*
X-8353Y35370D01*
Y33562D01*
X-8392Y33532D01*
X-8480Y33417D01*
X-8536Y33284D01*
X-8555Y33140D01*
Y32840D01*
X-8536Y32696D01*
X-8480Y32563D01*
X-8817Y32305D01*
X-9194D01*
X-9288Y32286D01*
X-9367Y32233D01*
X-9918Y31682D01*
X-10887D01*
X-10890Y31681D01*
X-10890Y31681D01*
X-10908Y31703D01*
X-10908Y31703D01*
X-10908Y31703D01*
Y32193D01*
X-10525D01*
Y32590D01*
X-10475D01*
Y32640D01*
X-10088D01*
Y32987D01*
X-10211D01*
X-10716Y33196D01*
X-10730Y33212D01*
X-10716Y33320D01*
X-10732Y33437D01*
X-10777Y33547D01*
X-10849Y33641D01*
X-10879Y33664D01*
Y33679D01*
X-10807Y33773D01*
X-10762Y33883D01*
X-10753Y33950D01*
X-11200D01*
Y34050D01*
X-10753D01*
X-10762Y34117D01*
X-10807Y34227D01*
X-10879Y34321D01*
X-10973Y34393D01*
X-10988Y34399D01*
X-10997Y34433D01*
X-10952Y34543D01*
X-10936Y34660D01*
X-10952Y34777D01*
X-10997Y34887D01*
X-11069Y34981D01*
X-11097Y35003D01*
Y35253D01*
X-10803Y35312D01*
X-10783Y35263D01*
X-10711Y35169D01*
X-10617Y35097D01*
X-10507Y35052D01*
X-10390Y35036D01*
X-10273Y35052D01*
X-10163Y35097D01*
X-10101Y35145D01*
X-9823Y35030D01*
X-9818Y34993D01*
X-9773Y34883D01*
X-9701Y34789D01*
X-9607Y34717D01*
X-9497Y34672D01*
X-9380Y34656D01*
X-9263Y34672D01*
X-9153Y34717D01*
X-9059Y34789D01*
X-8987Y34883D01*
X-8942Y34993D01*
X-8926Y35110D01*
X-8942Y35227D01*
X-8987Y35337D01*
X-9059Y35431D01*
X-9077Y35445D01*
Y35878D01*
X-9003D01*
Y36528D01*
Y37302D01*
X-9097D01*
Y38629D01*
X-8820Y38723D01*
X-8799Y38703D01*
D02*
G37*
%LPC*%
G36*
X-21495Y7940D02*
X-21832D01*
Y7593D01*
X-21495D01*
Y7940D01*
D02*
G37*
G36*
X-21751Y7325D02*
X-22147D01*
Y6840D01*
X-21751D01*
Y7325D01*
D02*
G37*
G36*
X955Y6540D02*
X450D01*
Y5892D01*
X544Y5904D01*
X677Y5960D01*
X792Y6048D01*
X880Y6163D01*
X936Y6296D01*
X955Y6440D01*
Y6540D01*
D02*
G37*
G36*
X-21751Y6740D02*
X-22147D01*
Y6255D01*
X-21751D01*
Y6740D01*
D02*
G37*
G36*
X450Y7288D02*
Y6640D01*
X955D01*
Y6740D01*
X936Y6884D01*
X880Y7017D01*
X792Y7132D01*
X677Y7220D01*
X544Y7276D01*
X450Y7288D01*
D02*
G37*
G36*
X-21495Y8387D02*
X-21832D01*
Y8040D01*
X-21495D01*
Y8387D01*
D02*
G37*
G36*
X-2403Y15015D02*
X-2750D01*
Y14678D01*
X-2403D01*
Y15015D01*
D02*
G37*
G36*
X-17660Y16640D02*
X-18057D01*
X-18048Y16573D01*
X-18003Y16463D01*
X-17931Y16369D01*
X-17837Y16297D01*
X-17727Y16252D01*
X-17660Y16243D01*
Y16640D01*
D02*
G37*
G36*
X-17163D02*
X-17560D01*
Y16243D01*
X-17493Y16252D01*
X-17383Y16297D01*
X-17289Y16369D01*
X-17217Y16463D01*
X-17172Y16573D01*
X-17163Y16640D01*
D02*
G37*
G36*
X-6088Y36140D02*
X-6425D01*
Y35793D01*
X-6088D01*
Y36140D01*
D02*
G37*
G36*
X-1090Y14760D02*
X-1888D01*
X-1876Y14666D01*
X-1820Y14533D01*
X-1732Y14418D01*
X-1617Y14330D01*
X-1484Y14274D01*
X-1340Y14255D01*
X-1090D01*
Y14760D01*
D02*
G37*
G36*
X-2850Y15015D02*
X-3197D01*
Y14678D01*
X-2850D01*
Y15015D01*
D02*
G37*
G36*
X-50Y7290D02*
Y7290D01*
X-1150D01*
Y5890D01*
X-50D01*
Y5890D01*
X-42Y5912D01*
X123Y5960D01*
X256Y5904D01*
X350Y5892D01*
Y6590D01*
Y7288D01*
X256Y7276D01*
X123Y7220D01*
X-42Y7268D01*
X-50Y7290D01*
D02*
G37*
G36*
X-11650Y1410D02*
X-13800D01*
Y110D01*
X-11650D01*
Y1410D01*
D02*
G37*
G36*
X-9400D02*
X-11550D01*
Y110D01*
X-9400D01*
Y1410D01*
D02*
G37*
G36*
X-14520Y4740D02*
X-16670D01*
Y1440D01*
X-14520D01*
Y4740D01*
D02*
G37*
G36*
X-5850Y39340D02*
X-6350D01*
Y38540D01*
X-5850D01*
Y39340D01*
D02*
G37*
G36*
X-6088Y37387D02*
X-6425D01*
Y37040D01*
X-6088D01*
Y37387D01*
D02*
G37*
G36*
X-14520Y1340D02*
X-16670D01*
Y40D01*
X-14520D01*
Y1340D01*
D02*
G37*
G36*
X-11650Y4810D02*
X-13800D01*
Y1510D01*
X-11650D01*
Y4810D01*
D02*
G37*
G36*
X-3600Y4510D02*
X-5750D01*
Y3210D01*
X-3600D01*
Y4510D01*
D02*
G37*
G36*
X-5850Y7910D02*
X-8000D01*
Y4610D01*
X-5850D01*
Y7910D01*
D02*
G37*
G36*
X-3600D02*
X-5750D01*
Y4610D01*
X-3600D01*
Y7910D01*
D02*
G37*
G36*
X-9400Y4810D02*
X-11550D01*
Y1510D01*
X-9400D01*
Y4810D01*
D02*
G37*
G36*
X-21450Y2838D02*
X-21544Y2826D01*
X-21677Y2770D01*
X-21792Y2682D01*
X-21880Y2567D01*
X-21936Y2434D01*
X-21955Y2290D01*
Y2040D01*
X-21450D01*
Y2838D01*
D02*
G37*
G36*
X-5850Y4510D02*
X-8000D01*
Y3210D01*
X-5850D01*
Y4510D01*
D02*
G37*
G36*
X-17660Y17137D02*
X-17727Y17128D01*
X-17837Y17083D01*
X-17931Y17011D01*
X-18003Y16917D01*
X-18048Y16807D01*
X-18057Y16740D01*
X-17660D01*
Y17137D01*
D02*
G37*
G36*
X-16250Y24948D02*
X-17739D01*
Y23440D01*
X-16250D01*
Y24948D01*
D02*
G37*
G36*
X-13553Y26130D02*
X-13950D01*
Y25733D01*
X-13883Y25742D01*
X-13773Y25787D01*
X-13679Y25859D01*
X-13607Y25953D01*
X-13562Y26063D01*
X-13553Y26130D01*
D02*
G37*
G36*
X-11750D02*
X-12147D01*
X-12138Y26063D01*
X-12093Y25953D01*
X-12021Y25859D01*
X-11927Y25787D01*
X-11817Y25742D01*
X-11750Y25733D01*
Y26130D01*
D02*
G37*
G36*
X-7288Y23140D02*
X-7625D01*
Y22793D01*
X-7288D01*
Y23140D01*
D02*
G37*
G36*
X-16250Y23340D02*
X-17739D01*
Y21832D01*
X-16250D01*
Y23340D01*
D02*
G37*
G36*
X-175Y33740D02*
X-512D01*
Y33393D01*
X-175D01*
Y33740D01*
D02*
G37*
G36*
X-5950Y33688D02*
Y33040D01*
X-5445D01*
Y33140D01*
X-5464Y33284D01*
X-5520Y33417D01*
X-5608Y33532D01*
X-5723Y33620D01*
X-5856Y33676D01*
X-5950Y33688D01*
D02*
G37*
G36*
X-10088Y32540D02*
X-10425D01*
Y32193D01*
X-10088D01*
Y32540D01*
D02*
G37*
G36*
X-15850Y32387D02*
X-15917Y32378D01*
X-16027Y32333D01*
X-16121Y32261D01*
X-16193Y32167D01*
X-16238Y32057D01*
X-16247Y31990D01*
X-15850D01*
Y32387D01*
D02*
G37*
G36*
X-6288Y30940D02*
X-6625D01*
Y30593D01*
X-6288D01*
Y30940D01*
D02*
G37*
G36*
X-16250Y28017D02*
X-16735D01*
Y27621D01*
X-16250D01*
Y28017D01*
D02*
G37*
G36*
X-16903Y33350D02*
X-17300D01*
Y32953D01*
X-17233Y32962D01*
X-17123Y33007D01*
X-17029Y33079D01*
X-16957Y33173D01*
X-16912Y33283D01*
X-16903Y33350D01*
D02*
G37*
G36*
X-18450Y27615D02*
X-18797D01*
Y27278D01*
X-18450D01*
Y27615D01*
D02*
G37*
G36*
X-18003D02*
X-18350D01*
Y27278D01*
X-18003D01*
Y27615D01*
D02*
G37*
G36*
X-14050Y18415D02*
X-14397D01*
Y18078D01*
X-14050D01*
Y18415D01*
D02*
G37*
G36*
X-12803D02*
X-13150D01*
Y18078D01*
X-12803D01*
Y18415D01*
D02*
G37*
G36*
X-175Y34187D02*
X-512D01*
Y33840D01*
X-175D01*
Y34187D01*
D02*
G37*
G36*
X-8603Y18302D02*
X-8950D01*
Y17965D01*
X-8603D01*
Y18302D01*
D02*
G37*
G36*
X-17560Y17137D02*
Y16740D01*
X-17163D01*
X-17172Y16807D01*
X-17217Y16917D01*
X-17289Y17011D01*
X-17383Y17083D01*
X-17493Y17128D01*
X-17560Y17137D01*
D02*
G37*
G36*
X-15870Y18320D02*
X-16267D01*
X-16258Y18253D01*
X-16213Y18143D01*
X-16141Y18049D01*
X-16047Y17977D01*
X-15937Y17932D01*
X-15870Y17923D01*
Y18320D01*
D02*
G37*
G36*
X-15373D02*
X-15770D01*
Y17923D01*
X-15703Y17932D01*
X-15593Y17977D01*
X-15499Y18049D01*
X-15427Y18143D01*
X-15382Y18253D01*
X-15373Y18320D01*
D02*
G37*
G36*
X-2803Y21102D02*
X-3150D01*
Y20765D01*
X-2803D01*
Y21102D01*
D02*
G37*
G36*
X-4450Y34102D02*
X-4797D01*
Y33765D01*
X-4450D01*
Y34102D01*
D02*
G37*
G36*
X-17300Y33847D02*
Y33450D01*
X-16903D01*
X-16912Y33517D01*
X-16957Y33627D01*
X-17029Y33721D01*
X-17123Y33793D01*
X-17233Y33838D01*
X-17300Y33847D01*
D02*
G37*
G36*
X-3750Y21508D02*
X-4550D01*
Y20886D01*
X-3750D01*
D01*
X-3750D01*
X-3597Y20732D01*
Y20765D01*
X-3250D01*
Y21102D01*
X-3597D01*
D01*
X-3597D01*
X-3750Y21255D01*
Y21508D01*
D02*
G37*
G36*
X-2403Y34102D02*
X-2750D01*
Y33765D01*
X-2403D01*
Y34102D01*
D02*
G37*
G36*
X-12803Y19502D02*
X-13150D01*
Y19165D01*
X-12803D01*
Y19502D01*
D02*
G37*
G36*
X-6330Y21067D02*
Y20670D01*
X-5933D01*
X-5942Y20737D01*
X-5987Y20847D01*
X-6059Y20941D01*
X-6153Y21013D01*
X-6263Y21058D01*
X-6330Y21067D01*
D02*
G37*
%LPD*%
D10*
X807Y110D02*
G03*
X807Y110I-807J0D01*
G01*
X-80Y410D02*
G03*
X-80Y410I-220J0D01*
G01*
X520D02*
G03*
X520Y410I-220J0D01*
G01*
X-600Y90D02*
G03*
X600Y90I600J-50D01*
G01*
X-600D02*
G03*
X600Y90I600J200D01*
G01*
X-3800Y36460D02*
X-3730Y36390D01*
X500Y33765D02*
X525Y33790D01*
X-6000Y32990D02*
X-5850D01*
X-10000Y12990D02*
X-9000D01*
X-100Y-10D02*
X100D01*
X0Y-110D02*
Y90D01*
D11*
X-200Y360D02*
G03*
X-200Y360I-100J0D01*
G01*
X400D02*
G03*
X400Y360I-100J0D01*
G01*
X-7400Y30915D02*
X-7325Y30990D01*
X-7400Y30190D02*
Y30915D01*
X-7860Y31490D02*
X-6860D01*
X-8075Y31275D02*
X-7860Y31490D01*
X-8075Y30990D02*
Y31275D01*
X-6675Y30990D02*
Y31305D01*
X-6860Y31490D02*
X-6675Y31305D01*
Y30850D02*
Y30990D01*
X-600Y28190D02*
X380D01*
X500Y28310D01*
Y33765D01*
X-3075Y31190D02*
X-600D01*
X-7400Y28865D02*
Y29599D01*
X-3075Y28190D02*
X-600D01*
X-3075Y29190D02*
X-600D01*
X-3075Y30190D02*
X-600D01*
X-6770Y29920D02*
G03*
X-6770Y29920I-630J0D01*
G01*
X-1600Y2590D02*
Y3090D01*
Y1590D02*
X-1100D01*
X-1600D02*
Y2090D01*
Y5590D02*
Y6090D01*
Y4590D02*
Y5090D01*
Y8090D02*
Y8590D01*
Y7090D02*
Y7590D01*
Y11090D02*
Y11590D01*
Y10090D02*
Y10590D01*
X1400Y2590D02*
Y3090D01*
Y1590D02*
Y2090D01*
X400Y1590D02*
X900D01*
X1400Y5590D02*
Y6090D01*
Y4590D02*
Y5090D01*
Y8590D02*
Y9090D01*
Y7590D02*
Y8090D01*
X900Y11590D02*
X1400D01*
X-100D02*
X400D01*
X1400Y10590D02*
Y11090D01*
X-1600Y3590D02*
Y4090D01*
Y9090D02*
Y9590D01*
X1400Y3590D02*
Y4090D01*
Y6590D02*
Y7090D01*
Y9590D02*
Y10090D01*
X-600Y1590D02*
X-100D01*
X-1100Y11590D02*
X-600D01*
D12*
X-3075Y28190D02*
D03*
X-3725D02*
D03*
X-3075Y29190D02*
D03*
X-3725D02*
D03*
X-3075Y30190D02*
D03*
X-3725D02*
D03*
X-3075Y31190D02*
D03*
X-3725D02*
D03*
X525Y33790D02*
D03*
X-125D02*
D03*
X-6675Y30990D02*
D03*
X-7325D02*
D03*
X-6675Y28790D02*
D03*
X-7325D02*
D03*
X-8355Y24190D02*
D03*
X-7705D02*
D03*
X-6475Y36190D02*
D03*
X-7125D02*
D03*
Y36990D02*
D03*
X-6475D02*
D03*
X-15475Y20190D02*
D03*
X-16125D02*
D03*
X-20275Y20790D02*
D03*
X-20925D02*
D03*
X-20795Y7990D02*
D03*
X-21445D02*
D03*
X-12075Y10660D02*
D03*
X-12725D02*
D03*
X-16795Y10590D02*
D03*
X-17445D02*
D03*
X-8325Y23190D02*
D03*
X-7675D02*
D03*
X-6875Y25790D02*
D03*
X-7525D02*
D03*
X-11125Y32590D02*
D03*
X-10475D02*
D03*
X-8725Y30990D02*
D03*
X-8075D02*
D03*
D13*
X-2800Y33065D02*
D03*
Y33715D02*
D03*
X-3600Y33065D02*
D03*
Y33715D02*
D03*
X-4400Y33065D02*
D03*
Y33715D02*
D03*
X-3600Y13315D02*
D03*
Y13965D02*
D03*
X-4400Y13315D02*
D03*
Y13965D02*
D03*
X-5200Y13315D02*
D03*
Y13965D02*
D03*
X-15400Y36915D02*
D03*
Y36265D02*
D03*
X-14400Y36915D02*
D03*
Y36265D02*
D03*
X-13400Y36915D02*
D03*
Y36265D02*
D03*
X-12400Y36915D02*
D03*
Y36265D02*
D03*
X-11400Y36915D02*
D03*
Y36265D02*
D03*
X-10400Y36915D02*
D03*
Y36265D02*
D03*
X-9400Y36915D02*
D03*
Y36265D02*
D03*
X-2800Y15715D02*
D03*
Y15065D02*
D03*
X-18400Y28315D02*
D03*
Y27665D02*
D03*
X-3200Y20065D02*
D03*
Y20715D02*
D03*
X-9000Y17265D02*
D03*
Y17915D02*
D03*
X-13200Y18465D02*
D03*
Y19115D02*
D03*
X-14000D02*
D03*
Y18465D02*
D03*
X-11890Y33210D02*
D03*
Y33860D02*
D03*
X-13600Y33265D02*
D03*
Y33915D02*
D03*
X-9200Y29115D02*
D03*
Y28465D02*
D03*
X-10000Y28315D02*
D03*
Y27665D02*
D03*
X-12400Y27315D02*
D03*
Y26665D02*
D03*
X-13200Y27315D02*
D03*
Y26665D02*
D03*
X-15200Y28915D02*
D03*
Y28265D02*
D03*
D14*
X-7250Y20620D02*
D03*
X-9280D02*
D03*
X-7250Y19620D02*
D03*
Y19120D02*
D03*
Y20120D02*
D03*
X-9280Y19620D02*
D03*
Y19120D02*
D03*
Y20120D02*
D03*
X-7250Y21120D02*
D03*
Y21620D02*
D03*
Y22120D02*
D03*
X-9280Y21120D02*
D03*
Y21620D02*
D03*
Y22120D02*
D03*
D15*
X-16200Y23390D02*
D03*
D16*
X-15302Y20949D02*
D03*
X-17098D02*
D03*
D17*
X-21216Y21848D02*
D03*
X-20310D02*
D03*
X-19404D02*
D03*
D18*
X-20310Y24132D02*
D03*
D19*
X-3800Y36460D02*
D03*
Y37130D02*
D03*
X-6400Y24260D02*
D03*
Y24930D02*
D03*
X-6800Y12660D02*
D03*
Y13330D02*
D03*
X-4400Y22860D02*
D03*
Y23530D02*
D03*
Y25120D02*
D03*
Y24450D02*
D03*
X-10600Y15400D02*
D03*
Y16070D02*
D03*
X-5400Y24460D02*
D03*
Y25130D02*
D03*
X-10000Y17460D02*
D03*
Y18130D02*
D03*
X-17800Y31260D02*
D03*
Y31930D02*
D03*
X-22200Y24720D02*
D03*
Y24050D02*
D03*
X-16400Y36930D02*
D03*
Y36260D02*
D03*
D20*
X-15019Y19390D02*
D03*
X-16181D02*
D03*
X-20539Y6790D02*
D03*
X-21701D02*
D03*
D21*
X-21227Y19590D02*
D03*
X-19573D02*
D03*
D22*
X-11570Y9660D02*
D03*
X-12830D02*
D03*
X-16890Y9590D02*
D03*
X-18150D02*
D03*
D23*
X-10530D02*
D03*
X-9860D02*
D03*
X-16530Y11590D02*
D03*
X-15860D02*
D03*
X-6730Y26590D02*
D03*
X-6060D02*
D03*
X-6870Y17790D02*
D03*
X-7540D02*
D03*
X-9930Y24190D02*
D03*
X-9260D02*
D03*
D24*
X-4800Y27590D02*
D03*
X-4426Y26661D02*
D03*
X-5174D02*
D03*
X-17774Y36119D02*
D03*
X-17400Y35190D02*
D03*
X-18148D02*
D03*
D25*
X-4600Y21558D02*
D03*
Y18822D02*
D03*
D26*
X-6600Y16190D02*
D03*
X-7529Y15816D02*
D03*
Y16564D02*
D03*
D27*
X-12413Y29390D02*
D03*
Y30965D02*
D03*
X-13200Y29390D02*
D03*
X-11625Y30965D02*
D03*
D28*
X-13200Y30177D02*
D03*
Y30965D02*
D03*
X-11625Y29390D02*
D03*
Y30177D02*
D03*
X-12413D02*
D03*
D29*
X-13672Y31703D02*
D03*
X-13515D02*
D03*
X-13357D02*
D03*
X-13200D02*
D03*
X-13043D02*
D03*
X-12885D02*
D03*
X-12728D02*
D03*
X-12570D02*
D03*
X-12413D02*
D03*
X-12255D02*
D03*
X-12098D02*
D03*
X-11940D02*
D03*
X-11783D02*
D03*
X-11625D02*
D03*
X-11468D02*
D03*
X-11310D02*
D03*
X-11153D02*
D03*
Y28652D02*
D03*
X-11310D02*
D03*
X-11468D02*
D03*
X-11625D02*
D03*
X-11783D02*
D03*
X-11940D02*
D03*
X-12098D02*
D03*
X-12255D02*
D03*
X-12413D02*
D03*
X-12570D02*
D03*
X-12728D02*
D03*
X-12885D02*
D03*
X-13043D02*
D03*
X-13200D02*
D03*
X-13357D02*
D03*
X-13515D02*
D03*
X-13672D02*
D03*
D30*
X-10887Y31437D02*
D03*
Y31280D02*
D03*
Y31122D02*
D03*
Y30965D02*
D03*
Y30807D02*
D03*
Y30650D02*
D03*
Y30492D02*
D03*
Y30335D02*
D03*
Y30177D02*
D03*
Y30020D02*
D03*
Y29862D02*
D03*
Y29705D02*
D03*
Y29547D02*
D03*
Y29390D02*
D03*
Y29233D02*
D03*
Y29075D02*
D03*
Y28918D02*
D03*
X-13938D02*
D03*
Y29075D02*
D03*
Y29233D02*
D03*
Y29390D02*
D03*
Y29547D02*
D03*
Y29705D02*
D03*
Y29862D02*
D03*
Y30020D02*
D03*
Y30177D02*
D03*
Y30335D02*
D03*
Y30492D02*
D03*
Y30650D02*
D03*
Y30807D02*
D03*
Y30965D02*
D03*
Y31122D02*
D03*
Y31280D02*
D03*
Y31437D02*
D03*
D31*
X-16200Y26409D02*
D03*
Y27571D02*
D03*
D32*
X-5800Y4660D02*
X-5380Y4240D01*
X-9887Y30457D02*
X-9785Y30560D01*
X-10080Y30457D02*
X-9887D01*
X-4426Y24990D02*
Y25120D01*
X-7770Y30190D02*
X-7400D01*
X-8098Y29862D02*
X-7770Y30190D01*
X-10887Y29862D02*
X-8098D01*
X-7999Y29599D02*
X-7400D01*
X-8105Y29705D02*
X-7999Y29599D01*
X-10887Y29705D02*
X-8105D01*
X-4114Y30190D02*
X-3725D01*
X-5844Y31920D02*
X-4114Y30190D01*
X-4850Y29560D02*
Y30728D01*
Y29560D02*
X-4480Y29190D01*
X-9194Y32060D02*
X-5786D01*
X-9136Y31920D02*
X-5844D01*
X-9078Y31780D02*
X-5902D01*
X-4916Y31190D02*
X-3725D01*
X-5786Y32060D02*
X-4916Y31190D01*
X-5902Y31780D02*
X-4850Y30728D01*
X-4990Y28810D02*
Y30670D01*
X-5960Y31640D02*
X-4990Y30670D01*
X-9020Y31640D02*
X-5960D01*
X-9817Y31437D02*
X-9194Y32060D01*
X-10887Y31437D02*
X-9817D01*
X-9776Y31280D02*
X-9136Y31920D01*
X-10887Y31280D02*
X-9776D01*
X-9736Y31122D02*
X-9078Y31780D01*
X-10887Y31122D02*
X-9736D01*
X-9695Y30965D02*
X-9020Y31640D01*
X-10887Y30965D02*
X-9695D01*
X-4480Y29190D02*
X-3725D01*
X-4370Y28190D02*
X-3725D01*
X-4990Y28810D02*
X-4370Y28190D01*
X-2760Y32340D02*
Y33025D01*
X-3590Y32340D02*
Y33055D01*
X-4390Y32400D02*
Y33055D01*
X-22200Y24050D02*
X-22118Y24132D01*
X-8372Y24190D02*
X-8355D01*
X-6870Y17790D02*
X-6840Y17820D01*
X-4600Y18822D02*
X-4568Y18790D01*
X-7540Y16575D02*
X-7529Y16564D01*
X-11625Y28303D02*
Y28652D01*
X-11783Y28263D02*
X-11170Y27650D01*
Y21760D02*
Y27650D01*
X-11940Y28190D02*
X-11335Y27585D01*
X-11783Y28263D02*
Y28652D01*
X-11940Y28190D02*
Y28652D01*
X-1200Y22990D02*
X-1140Y23050D01*
X-10520Y21110D02*
X-9520D01*
X-11170Y21760D02*
X-10520Y21110D01*
X-5245Y26590D02*
X-5174Y26661D01*
X-10600Y8460D02*
Y8530D01*
X-3809Y39119D02*
X-3800Y39110D01*
X-15302Y20949D02*
X-15301Y20950D01*
X-11468Y28398D02*
Y28652D01*
X-20310Y26412D02*
X-20255Y26390D01*
X-9210Y28455D02*
X-9200Y28465D01*
X-10887Y28918D02*
X-10000D01*
X-13938Y30177D02*
X-13360D01*
X-13938Y30335D02*
X-13470D01*
X-13938Y30492D02*
X-13440D01*
X-13938Y30650D02*
X-13590D01*
X-13938Y30807D02*
X-13440D01*
X-14563D02*
X-13938D01*
X-14740Y30630D02*
X-14720Y30650D01*
X-17350Y33400D02*
X-17260D01*
X-15890Y31940D02*
X-15800D01*
X-16429Y36231D02*
X-16400Y36260D01*
X-9400Y36265D02*
X-9380Y36245D01*
X-10400Y35500D02*
X-10390Y35490D01*
X-11400Y34670D02*
X-11390Y34660D01*
X-15400Y35950D02*
X-15130Y35680D01*
X-13360Y34590D02*
X-13110Y34340D01*
X-12098Y31208D02*
Y31703D01*
X-12413Y30965D02*
X-12341D01*
X-12116Y31190D01*
X-14320Y33280D02*
X-14305Y33265D01*
X-13672Y31703D02*
Y31882D01*
X-15400Y35950D02*
Y36265D01*
X-12400Y35640D02*
Y36265D01*
X-12520Y35520D02*
X-12400Y35640D01*
X-17780Y31280D02*
X-13938D01*
X-12520Y32604D02*
Y35520D01*
X-12728Y32396D02*
X-12520Y32604D01*
X-12728Y31703D02*
Y32396D01*
X-12885Y32437D02*
X-12660Y32662D01*
X-12885Y31703D02*
Y32437D01*
X-13043Y32477D02*
X-12800Y32720D01*
X-13043Y31703D02*
Y32477D01*
X-13200Y32590D02*
X-12970Y32820D01*
X-13200Y31703D02*
Y32590D01*
X-13110Y32900D02*
Y34340D01*
X-13357Y32653D02*
X-13110Y32900D01*
X-13357Y31703D02*
Y32653D01*
X-14367Y31437D02*
X-13938D01*
X-12310Y33000D02*
X-12100Y33210D01*
X-11890D01*
X-13515Y31703D02*
Y32805D01*
X-11940Y31703D02*
Y32430D01*
X-10203Y30335D02*
X-10080Y30457D01*
X-10887Y30335D02*
X-10203D01*
X-9785Y30560D02*
X-9620D01*
X-9265Y30915D01*
X-8800D01*
X-11153Y31703D02*
Y32457D01*
X-12570Y28652D02*
Y29110D01*
X-18020Y30420D02*
X-17630Y30030D01*
X-16350D01*
X-18352Y29862D02*
X-13938D01*
X-18880Y30390D02*
X-18352Y29862D01*
X-20400Y30390D02*
X-18880D01*
X-16350Y30030D02*
X-16340Y30020D01*
X-13938D01*
X-20150Y29350D02*
X-18720D01*
X-18365Y29705D01*
X-13938D01*
X-8075Y30705D02*
Y30990D01*
X-8150Y30630D02*
X-8075Y30705D01*
X-9290Y30630D02*
X-8150D01*
X-9743Y30177D02*
X-9290Y30630D01*
X-10887Y30020D02*
X-8700D01*
X-8550Y30170D01*
X-10887Y30177D02*
X-9743D01*
X-11625D02*
X-10887D01*
X-11310Y30492D02*
X-10887D01*
X-18170Y10590D02*
X-18150Y10570D01*
X-16200Y23390D02*
X-16125Y23315D01*
X-16181Y20134D02*
X-16125Y20190D01*
X-11335Y20135D02*
X-10810Y19610D01*
X-11335Y20135D02*
Y27585D01*
X-10320Y19120D02*
X-9280D01*
X-10810Y19610D02*
X-9390D01*
X-11468Y28398D02*
X-8860Y25790D01*
X-7675D01*
X-1080Y20070D02*
X-680D01*
X-600Y19990D01*
X-10810Y19610D02*
X-10320Y19120D01*
X-13600Y32890D02*
X-13515Y32805D01*
X-13600Y32890D02*
Y33180D01*
X-12310Y32270D02*
Y33000D01*
Y32270D02*
X-12250Y32210D01*
Y31810D02*
Y32210D01*
X-14720Y30650D02*
X-13938D01*
X-14720D02*
X-14563Y30807D01*
X-4600Y21558D02*
X-4552Y21510D01*
X-14287Y30177D02*
X-13938D01*
X-14445Y30335D02*
X-14287Y30177D01*
X-14602Y30492D02*
X-14445Y30335D01*
X-14740Y30630D02*
X-14602Y30492D01*
X-14445Y30335D02*
X-13938D01*
X-14602Y30492D02*
X-13938D01*
X-14850Y31920D02*
X-14367Y31437D01*
X-14710Y34500D02*
X-14330Y34880D01*
X-14710Y32920D02*
Y34500D01*
Y32920D02*
X-13672Y31882D01*
X-14850Y31920D02*
Y34640D01*
X-14690Y34800D01*
Y35310D01*
X-14700Y28910D02*
X-13938Y28918D01*
X-13200Y27315D02*
Y27840D01*
X-12728Y28312D01*
Y28652D01*
X-12800Y26180D02*
Y28000D01*
X-12570Y28230D01*
Y28652D01*
X-13400Y35500D02*
Y36265D01*
Y35500D02*
X-12660Y34760D01*
Y32662D02*
Y34760D01*
X-12800Y32720D02*
Y34702D01*
X-12970Y32820D02*
Y34674D01*
X-13728Y35630D02*
X-12800Y34702D01*
X-13786Y35490D02*
X-12970Y34674D01*
X-15130Y35680D02*
X-14460D01*
X-14270Y35490D01*
X-13786D01*
X-14400Y35850D02*
Y36265D01*
Y35850D02*
X-14180Y35630D01*
X-13728D01*
X-9940Y24370D02*
X-9850Y24280D01*
X-9940Y24370D02*
Y26618D01*
X-11625Y28303D02*
X-9940Y26618D01*
X-12413Y27315D02*
Y28652D01*
X-7675Y25790D02*
X-7525Y25940D01*
D33*
X-7250Y25010D02*
X-5950D01*
X-7675Y23190D02*
Y24905D01*
X-9100Y18150D02*
X-9000D01*
X-5050Y33790D02*
X-125D01*
X-10470Y32590D02*
Y33700D01*
X-6675Y28790D02*
X-5960D01*
X-10765Y20845D02*
X-10540Y20620D01*
X-4426Y25120D02*
Y26661D01*
X-4468D02*
Y26968D01*
X-6710Y30990D02*
X-6675D01*
X-10590Y17560D02*
X-10000D01*
X-125Y33335D02*
Y33790D01*
X-610Y32850D02*
X-125Y33335D01*
X-3730Y36390D02*
X-2000D01*
X-3800Y37130D02*
Y39110D01*
X-8372Y21612D02*
Y24190D01*
X-610Y32270D02*
Y32850D01*
X-5850Y32990D02*
X-5050Y33790D01*
X-3770Y27590D02*
X-1260Y25080D01*
X-4800Y27590D02*
X-3770D01*
X-6675Y28790D02*
Y30990D01*
X-6760Y28790D02*
X-6675D01*
X-10600Y15060D02*
X-6280D01*
X-10600D02*
Y15400D01*
Y16070D02*
Y17550D01*
X-6060Y26590D02*
X-5245D01*
X-22200Y24720D02*
Y28130D01*
X-21940Y28390D01*
X-20400D01*
X-22118Y24132D02*
X-20310D01*
X-6400Y23590D02*
Y24260D01*
X-4400Y22860D02*
X-3690D01*
X-2400Y21570D01*
X-4400Y23530D02*
Y24450D01*
X-2130Y14810D02*
X-1040D01*
X-2385Y15065D02*
X-2130Y14810D01*
X-2800Y15065D02*
X-2385D01*
X-2800Y15715D02*
X-1135D01*
X-9260Y24190D02*
X-8372D01*
X-7570Y25010D02*
X-7250D01*
X-7675Y24905D02*
X-7570Y25010D01*
X-5970Y18120D02*
Y19200D01*
X-7250Y19120D02*
X-5980D01*
X-7250Y19620D02*
X-6390D01*
X-5970Y19200D01*
X-6270Y17820D02*
X-5970Y18120D01*
X-6840Y17820D02*
X-6270D01*
X-6280Y15060D02*
X-5950Y14730D01*
X-7540Y16575D02*
Y17790D01*
X-7250Y22120D02*
X-6150D01*
X-5400Y22420D02*
Y24460D01*
X-4410D01*
X-8372Y21612D02*
X-7880Y21120D01*
X-7250D01*
X-12400Y27315D02*
X-11745D01*
X-7250Y20620D02*
X-6380D01*
X-4740Y21410D02*
X-4630Y21300D01*
X-10000Y17460D02*
Y17560D01*
Y17080D02*
Y17460D01*
X-10540Y20620D02*
X-9280D01*
X-10550Y22020D02*
X-10150Y21620D01*
X-9280D01*
X-10550Y22120D02*
X-9280D01*
X-10630D02*
X-10550D01*
X-7220Y26580D02*
X-6750D01*
X-10540Y20120D02*
X-9280D01*
X-8220Y27130D02*
X-4630D01*
X-8835Y27745D02*
X-8220Y27130D01*
X-4630D02*
X-4468Y26968D01*
X-10000Y28315D02*
Y28918D01*
X-16429Y35511D02*
Y36231D01*
X-17400Y33450D02*
Y35190D01*
X-17774Y36806D02*
X-17140Y37440D01*
X-17774Y36119D02*
Y36806D01*
X-16400Y36930D02*
Y39190D01*
X-15400Y36915D02*
Y39190D01*
X-14400Y36915D02*
Y39190D01*
X-13400Y36915D02*
Y39190D01*
X-12400Y36915D02*
Y39190D01*
X-11400Y36915D02*
Y39190D01*
X-10400Y36915D02*
Y39190D01*
X-9400Y36915D02*
Y39190D01*
X-9380Y35110D02*
Y36245D01*
X-10400Y35500D02*
Y36265D01*
X-11400Y34670D02*
Y36265D01*
X-11890Y33860D02*
X-11510D01*
X-14275Y33915D02*
X-13600D01*
X-14305Y33265D02*
X-13600D01*
X-11890Y33210D02*
X-11210D01*
X-9200Y29115D02*
X-8575D01*
X-20400Y28390D02*
X-18475D01*
X-7870Y20620D02*
X-7250D01*
X-8280Y20210D02*
X-7870Y20620D01*
X-8280Y18150D02*
Y20210D01*
X-5950Y25010D02*
X-5830Y25130D01*
X-5400D01*
X-5260Y14025D02*
X-5210Y13975D01*
X-17400Y38630D02*
Y39190D01*
Y38630D02*
X-17140Y38370D01*
Y37440D02*
Y38370D01*
X-11080Y34000D02*
X-10770D01*
X-10470Y33700D01*
X-11510Y33860D02*
X-11370Y34000D01*
X-10000Y27665D02*
X-9695D01*
X-9210Y28150D01*
Y28455D01*
X-9000Y17000D02*
Y17265D01*
X-10000Y17080D02*
X-9780Y16860D01*
X-9140D01*
X-9000Y17000D01*
X-18148Y33028D02*
Y35190D01*
Y33028D02*
X-17800Y32680D01*
Y31930D02*
Y32680D01*
X-2400Y21570D02*
X-1280D01*
X-600Y20890D01*
Y19990D02*
Y20890D01*
X-15200Y28915D02*
X-14700Y28910D01*
Y28220D02*
Y28910D01*
Y28220D02*
X-13795Y27315D01*
X-6875Y25790D02*
X-6070D01*
X-5530Y22290D02*
X-5400Y22420D01*
X-7250Y20120D02*
X-6060D01*
X-5530Y21910D02*
Y22290D01*
X-5820Y21620D02*
X-5530Y21910D01*
X-7250Y21620D02*
X-5820D01*
D34*
X-9000Y18150D02*
X-8390D01*
X-11340D02*
X-9100D01*
X-20080Y12110D02*
X-18560Y10590D01*
X-16720Y8390D02*
Y10590D01*
X-6400Y35680D02*
Y39190D01*
X-9200Y28465D02*
X-8230D01*
X-16200Y27571D02*
X-15266Y27512D01*
X-13880Y20130D02*
Y26180D01*
X-17350Y27480D02*
X-16120D01*
X-20400Y27390D02*
X-17440D01*
X-16200Y18920D02*
Y19390D01*
X-21660Y5160D02*
Y15190D01*
X-11570Y9660D02*
X-10530D01*
X-11600Y8460D02*
Y10560D01*
Y1460D02*
Y8460D01*
Y180D02*
Y1460D01*
X-10600Y8600D02*
X-10440D01*
X-12830Y9660D02*
Y10660D01*
X-10600Y8600D02*
X-10070D01*
X-20720Y5440D02*
Y7990D01*
X-13300Y8460D02*
X-12600D01*
X-7420Y35950D02*
Y36190D01*
X-15302Y19992D02*
Y20949D01*
X-7420Y35950D02*
Y38720D01*
X-370Y38400D02*
X1090Y36940D01*
X-3090Y38400D02*
X-370D01*
X-3800Y39110D02*
X-3090Y38400D01*
X-20310Y26390D02*
Y26412D01*
Y24132D02*
Y26390D01*
Y20790D02*
Y21848D01*
X-17440Y27390D02*
X-17350Y27480D01*
X-15790Y8680D02*
Y12470D01*
X-19040Y12780D02*
X-19000D01*
X-5210Y13975D02*
X-3670D01*
X-20275Y20790D02*
X-19980D01*
X-19573Y20383D01*
Y19590D02*
Y20383D01*
X-16530Y10960D02*
Y11590D01*
X-16795Y10695D02*
X-16530Y10960D01*
X-18000Y12990D02*
X-16310D01*
X-19000D02*
X-18000D01*
X-16310D02*
X-15790Y12470D01*
X-16795Y10590D02*
Y10695D01*
X-11410Y12990D02*
X-10000D01*
X-12725Y11675D02*
X-11410Y12990D01*
X-12725Y10660D02*
Y11675D01*
X-20260Y16590D02*
X-17670D01*
X-21660Y15190D02*
X-20260Y16590D01*
X-16720Y1390D02*
Y8390D01*
X-6800Y11560D02*
Y12660D01*
Y10480D02*
Y11560D01*
Y13330D02*
X-5215D01*
X-870Y23980D02*
X340D01*
X-600Y17590D02*
Y18990D01*
X-1040Y17150D02*
X-600Y17590D01*
X-1040Y15810D02*
Y17150D01*
X-3200Y20715D02*
Y21170D01*
X-6600Y16190D02*
X-4900D01*
X-4060Y15350D01*
Y14090D02*
Y15350D01*
X-8280Y16068D02*
X-7992Y15780D01*
X-8280Y16068D02*
Y18150D01*
X-7992Y15780D02*
X-7639D01*
X-4600Y17300D02*
Y18590D01*
X-12305Y19115D02*
X-11340Y18150D01*
X-13200Y19115D02*
X-12305D01*
X-4800Y11890D02*
X-4790Y11900D01*
X-4200Y1060D02*
X-4100Y960D01*
X-4800Y11660D02*
Y11890D01*
X-6800Y10480D02*
X-6230Y9910D01*
X-9800Y9640D02*
Y12960D01*
X-10600Y8530D02*
Y8600D01*
X-7400Y39390D02*
Y40030D01*
Y39190D02*
Y39390D01*
X-15302Y19992D02*
X-15019Y19709D01*
Y19390D02*
Y19709D01*
X-16200Y18920D02*
X-15745Y18465D01*
X-14000D01*
X-17100Y20120D02*
Y20830D01*
X-18610Y20120D02*
X-17100D01*
X-6040Y-1020D02*
X-5200Y-180D01*
X-11600Y180D02*
X-10980Y-440D01*
X-5200Y-180D02*
Y850D01*
X-14000Y18465D02*
X-13200D01*
X-14000Y19115D02*
Y20010D01*
X-16200Y23390D02*
X-14340D01*
X-15301Y20950D02*
X-14380D01*
X-8000Y35370D02*
X-7420Y35950D01*
X-8000Y33390D02*
Y35370D01*
X-20310Y21848D02*
Y24132D01*
Y21650D02*
Y21848D01*
X-20255Y26390D02*
X-16219D01*
X-20310D02*
X-20255D01*
X-20400D02*
X-20310D01*
X-17260Y33400D02*
X-15800Y31940D01*
X-11170Y32635D02*
Y33320D01*
X-15220Y27530D02*
X-15200Y27800D01*
X-12800Y26180D02*
X-12410D01*
X-13190D02*
X-12800D01*
X-12410D02*
Y26655D01*
Y26180D02*
X-11700D01*
X-13190D02*
Y26655D01*
X-16200Y26409D02*
X-14701D01*
X-15200Y27800D02*
Y28265D01*
X-20720Y5440D02*
X-20350Y5070D01*
Y2450D02*
Y5070D01*
X-21660Y5160D02*
X-21280Y4780D01*
Y2360D02*
Y4780D01*
X340Y23980D02*
X1270Y23050D01*
X-21216Y21326D02*
Y21848D01*
Y21326D02*
X-20925Y21035D01*
X-21227Y19590D02*
Y20253D01*
X-20900Y20580D01*
X-21227Y18393D02*
Y19590D01*
X-18150Y9590D02*
Y10570D01*
X-18170Y10590D02*
X-17445D01*
X-16181Y19390D02*
Y20134D01*
X-16200Y20265D02*
Y23390D01*
X-14000Y20010D02*
X-13880Y20130D01*
X-14000Y26180D02*
X-13880D01*
X-13190D01*
X-20925Y20790D02*
Y21035D01*
X-3045Y19760D02*
X-1390D01*
X-1080Y20070D01*
X-20720Y7990D02*
X-18880D01*
X-18560Y8310D01*
X-17750D01*
X-6230Y9910D02*
X670D01*
X1270Y10510D01*
Y23050D01*
X-4790Y11900D02*
Y13140D01*
X-5260Y13315D02*
X-5200D01*
X-4400D01*
X-3640D01*
X-4100Y960D02*
X-3640D01*
X-3100Y1500D01*
Y9880D01*
X-14890Y30630D02*
X-14740D01*
X-6380Y20620D02*
X-4760D01*
X-4580Y20800D01*
Y21160D01*
X-4600Y18822D02*
X-3578D01*
X-3200Y19200D01*
Y20065D01*
X-3540Y21510D02*
X-3200Y21170D01*
X-4552Y21510D02*
X-3540D01*
X-12020Y10650D02*
X-11690D01*
X-11600Y10560D01*
X-13860Y9020D02*
X-13300Y8460D01*
X-6400Y35680D02*
X-6000Y35280D01*
Y33390D02*
Y35280D01*
X-15780Y30630D02*
X-14740D01*
X-19404Y20914D02*
Y21848D01*
Y20914D02*
X-18610Y20120D01*
X-10980Y-440D02*
X-6480D01*
X-6190Y-150D01*
Y770D01*
X-16720Y-250D02*
Y1390D01*
Y-250D02*
X-15950Y-1020D01*
X-6040D01*
X-13795Y27315D02*
X-13200D01*
X-14701Y26409D02*
X-13795Y27315D01*
X-7400Y40030D02*
X-7070Y40360D01*
X-5050D01*
X-3809Y39119D01*
X-18560Y10590D02*
X-18170D01*
X-17100Y18060D02*
Y20120D01*
Y18060D02*
X-13860Y14820D01*
Y9020D02*
Y14820D01*
X-10070Y8600D02*
X-9870Y8800D01*
Y9340D01*
D35*
X-3400Y36110D02*
Y36310D01*
X-3640Y36110D02*
X-3400D01*
X-4200D02*
Y36310D01*
Y36110D02*
X-3960D01*
X-3400Y37270D02*
Y37470D01*
X-3640D02*
X-3400D01*
X-4200Y37270D02*
Y37470D01*
X-3960D01*
X-10880Y9190D02*
X-10680D01*
X-10880D02*
Y9430D01*
Y9990D02*
X-10680D01*
X-10880Y9750D02*
Y9990D01*
X-9720Y9190D02*
X-9520D01*
Y9430D01*
X-9720Y9990D02*
X-9520D01*
Y9750D02*
Y9990D01*
X-16880Y11190D02*
X-16680D01*
X-16880D02*
Y11430D01*
Y11990D02*
X-16680D01*
X-16880Y11750D02*
Y11990D01*
X-15720Y11190D02*
X-15520D01*
Y11430D01*
X-15720Y11990D02*
X-15520D01*
Y11750D02*
Y11990D01*
X-7080Y26190D02*
X-6880D01*
X-7080D02*
Y26430D01*
Y26990D02*
X-6880D01*
X-7080Y26750D02*
Y26990D01*
X-5920Y26190D02*
X-5720D01*
Y26430D01*
X-5920Y26990D02*
X-5720D01*
Y26750D02*
Y26990D01*
X-6000Y23910D02*
Y24110D01*
X-6240Y23910D02*
X-6000D01*
X-6800D02*
Y24110D01*
Y23910D02*
X-6560D01*
X-6000Y25070D02*
Y25270D01*
X-6240D02*
X-6000D01*
X-6800Y25070D02*
Y25270D01*
X-6560D01*
X-6400Y12310D02*
Y12510D01*
X-6640Y12310D02*
X-6400D01*
X-7200D02*
Y12510D01*
Y12310D02*
X-6960D01*
X-6400Y13470D02*
Y13670D01*
X-6640D02*
X-6400D01*
X-7200Y13470D02*
Y13670D01*
X-6960D01*
X-4000Y22510D02*
Y22710D01*
X-4240Y22510D02*
X-4000D01*
X-4800D02*
Y22710D01*
Y22510D02*
X-4560D01*
X-4000Y23670D02*
Y23870D01*
X-4240D02*
X-4000D01*
X-4800Y23670D02*
Y23870D01*
X-4560D01*
X-4800Y25270D02*
Y25470D01*
X-4560D01*
X-4000Y25270D02*
Y25470D01*
X-4240D02*
X-4000D01*
X-4800Y24110D02*
Y24310D01*
Y24110D02*
X-4560D01*
X-4000D02*
Y24310D01*
X-4240Y24110D02*
X-4000D01*
X-10200Y15050D02*
Y15250D01*
X-10440Y15050D02*
X-10200D01*
X-11000D02*
Y15250D01*
Y15050D02*
X-10760D01*
X-10200Y16210D02*
Y16410D01*
X-10440D02*
X-10200D01*
X-11000Y16210D02*
Y16410D01*
X-10760D01*
X-5000Y24110D02*
Y24310D01*
X-5240Y24110D02*
X-5000D01*
X-5800D02*
Y24310D01*
Y24110D02*
X-5560D01*
X-5000Y25270D02*
Y25470D01*
X-5240D02*
X-5000D01*
X-5800Y25270D02*
Y25470D01*
X-5560D01*
X-6720Y18190D02*
X-6520D01*
Y17950D02*
Y18190D01*
X-6720Y17390D02*
X-6520D01*
Y17630D01*
X-7880Y18190D02*
X-7680D01*
X-7880Y17950D02*
Y18190D01*
Y17390D02*
X-7680D01*
X-7880D02*
Y17630D01*
X-9600Y17110D02*
Y17310D01*
X-9840Y17110D02*
X-9600D01*
X-10400D02*
Y17310D01*
Y17110D02*
X-10160D01*
X-9600Y18270D02*
Y18470D01*
X-9840D02*
X-9600D01*
X-10400Y18270D02*
Y18470D01*
X-10160D01*
X-10280Y23790D02*
X-10080D01*
X-10280D02*
Y24030D01*
Y24590D02*
X-10080D01*
X-10280Y24350D02*
Y24590D01*
X-9120Y23790D02*
X-8920D01*
Y24030D01*
X-9120Y24590D02*
X-8920D01*
Y24350D02*
Y24590D01*
X-17400Y30910D02*
Y31110D01*
X-17640Y30910D02*
X-17400D01*
X-18200D02*
Y31110D01*
Y30910D02*
X-17960D01*
X-17400Y32070D02*
Y32270D01*
X-17640D02*
X-17400D01*
X-18200Y32070D02*
Y32270D01*
X-17960D01*
X-22600Y24870D02*
Y25070D01*
X-22360D01*
X-21800Y24870D02*
Y25070D01*
X-22040D02*
X-21800D01*
X-22600Y23710D02*
Y23910D01*
Y23710D02*
X-22360D01*
X-21800D02*
Y23910D01*
X-22040Y23710D02*
X-21800D01*
X-16800Y37270D02*
X-16560D01*
X-16800Y37070D02*
Y37270D01*
X-16240D02*
X-16000D01*
Y37070D02*
Y37270D01*
X-16800Y35910D02*
X-16560D01*
X-16800D02*
Y36110D01*
X-16240Y35910D02*
X-16000D01*
Y36110D01*
D36*
X-4679Y20190D02*
X-4521D01*
X-4600Y20111D02*
Y20269D01*
D37*
X520Y-2580D02*
D03*
X-21860Y-2610D02*
D03*
X-21890Y39960D02*
D03*
X570Y39860D02*
D03*
D38*
X-11000Y11990D02*
D03*
X-9000Y12990D02*
D03*
X-10000D02*
D03*
X-11000Y13990D02*
D03*
X-20000Y11990D02*
D03*
X-18000Y12990D02*
D03*
X-19000D02*
D03*
X-20000Y13990D02*
D03*
D39*
X-16720Y2390D02*
D03*
X-5800Y5560D02*
D03*
X-11600Y2460D02*
D03*
D40*
X-16720Y8390D02*
D03*
X-17720D02*
D03*
X-5800Y11560D02*
D03*
X-6800D02*
D03*
X-11600Y8460D02*
D03*
X-12600D02*
D03*
D41*
X-15720Y8390D02*
D03*
X-4800Y11560D02*
D03*
X-10600Y8460D02*
D03*
D42*
X400Y6590D02*
D03*
X-6000Y32990D02*
D03*
X-7000Y34990D02*
D03*
Y33990D02*
D03*
X-8000Y32990D02*
D03*
D43*
X-600Y6590D02*
D03*
D44*
X-6400Y39390D02*
D03*
X-20400Y1990D02*
D03*
X-2000Y36390D02*
D03*
X-7200Y1060D02*
D03*
D45*
X-7400Y39390D02*
D03*
X-9400D02*
D03*
X-10400D02*
D03*
X-12400D02*
D03*
X-13400D02*
D03*
X-15400D02*
D03*
X-16400D02*
D03*
X-8400D02*
D03*
X-11400D02*
D03*
X-14400D02*
D03*
X-17400D02*
D03*
X-21400Y1990D02*
D03*
X-1000Y36390D02*
D03*
X-6200Y1060D02*
D03*
X-5200D02*
D03*
X-4200D02*
D03*
D46*
X-17820Y38150D02*
D03*
X-21820Y750D02*
D03*
X-580Y37630D02*
D03*
X-3780Y2300D02*
D03*
X-2440Y25410D02*
D03*
X-1840Y20410D02*
D03*
X200Y14390D02*
D03*
X-1840Y32610D02*
D03*
X-21640Y30810D02*
D03*
D47*
X-1200Y23990D02*
D03*
Y24990D02*
D03*
X-600Y19990D02*
D03*
X-1040Y14810D02*
D03*
X-600Y29190D02*
D03*
Y32190D02*
D03*
Y31190D02*
D03*
Y30190D02*
D03*
X-20400Y27390D02*
D03*
Y30390D02*
D03*
Y29390D02*
D03*
Y28390D02*
D03*
D48*
X-1200Y22990D02*
D03*
X-600Y18990D02*
D03*
X-1040Y15810D02*
D03*
X-600Y28190D02*
D03*
X-20400Y26390D02*
D03*
D49*
X-7400Y30190D02*
D03*
D50*
Y29599D02*
D03*
D51*
X1080Y36930D02*
D03*
X-2760Y32340D02*
D03*
X-3590D02*
D03*
X-4390Y32400D02*
D03*
X-5960Y28700D02*
D03*
X-7430Y26600D02*
D03*
X-6420Y23470D02*
D03*
X-5850Y14680D02*
D03*
X-4600Y17300D02*
D03*
X-7250Y25010D02*
D03*
X-11745Y27315D02*
D03*
X-6380Y20620D02*
D03*
X-10820Y20790D02*
D03*
X-10550Y22120D02*
D03*
X-10690Y17580D02*
D03*
X-10630Y20130D02*
D03*
X-8835Y27745D02*
D03*
X-15820Y18370D02*
D03*
X-14340Y23390D02*
D03*
X-14380Y20950D02*
D03*
X-9990Y29040D02*
D03*
X-15780Y30630D02*
D03*
X-15800Y31940D02*
D03*
X-16429Y35511D02*
D03*
X-17350Y33400D02*
D03*
X-10390Y35490D02*
D03*
X-9380Y35110D02*
D03*
X-11390Y34660D02*
D03*
X-14710Y35330D02*
D03*
X-14090Y34910D02*
D03*
X-13460Y34580D02*
D03*
X-14350Y33990D02*
D03*
X-11200Y34000D02*
D03*
X-14320Y33280D02*
D03*
X-11170Y33320D02*
D03*
X-11930Y32570D02*
D03*
X-10010Y30580D02*
D03*
X-8230Y28450D02*
D03*
X-11700Y26180D02*
D03*
X-14000D02*
D03*
X-15270Y27450D02*
D03*
X-8470Y30230D02*
D03*
X-8480Y29260D02*
D03*
X-18020Y30420D02*
D03*
X-21230Y18310D02*
D03*
X-17610Y16690D02*
D03*
X-7860Y11270D02*
D03*
X-6070Y25810D02*
D03*
X-10690Y26160D02*
D03*
X-6070Y22100D02*
D03*
X-5990Y20020D02*
D03*
D52*
X-12413Y29390D02*
D03*
X-13200Y30177D02*
D03*
X-12413Y30965D02*
D03*
X-13200Y29390D02*
D03*
Y30965D02*
D03*
X-11625D02*
D03*
Y29390D02*
D03*
Y30177D02*
D03*
X-12413D02*
D03*
M02*
